<?xml version="1.0" encoding="UTF-8" standalone="no"?>
<!-- Created with Inkscape (http://www.inkscape.org/) -->

<svg
   version="1.1"
   id="svg1"
   width="680"
   height="541"
   viewBox="0 0 680 541"
   xmlns="http://www.w3.org/2000/svg"
   xmlns:svg="http://www.w3.org/2000/svg">
  <defs
     id="defs1" />
  <g
     id="g1">
    <path
       style="display:inline;fill:#000000;fill-opacity:1"
       d="m 5.6641364,539.56714 c -0.3003086,-0.78259 -1.8100928,-1.61293 -3.355076,-1.84519 -2.66273848,-0.40029 -2.63813545,-0.43009 0.4723244,-0.57212 C 7.0482447,536.955 6.6452923,539.70597 8.3694405,499 10.16777,456.54266 10.067344,455.40159 4.25,452.19373 c -6.3032534,-3.47581 -5.6994194,-5.9619 0.6647573,-2.73693 3.863602,1.95784 5.0928967,3.19124 5.7476607,5.76685 1.484116,5.83799 -0.458708,71.9851 -2.3374666,79.58351 L 7.7544891,537.11433 28.7961,536.80716 c 11.572886,-0.16894 21.411691,-0.67822 21.864011,-1.13175 0.452319,-0.45352 0.920685,-29.92852 1.040813,-65.5 C 52.001492,381.17331 52.957603,45.107321 52.980967,20.25 L 53,0 h 2.5 c 2.82515,0 3.638373,12.35019 1.440863,21.881976 -1.333998,5.786272 -4.047975,5.279154 30.749773,5.745723 16.945154,0.2272 45.659364,0.6759 63.809364,0.997109 18.15,0.32121 42.21118,0.259004 53.46929,-0.138234 l 20.46929,-0.722252 6.90208,-6.632161 C 236.13681,17.484472 241.66635,11.2375 244.62852,7.25 c 4.41852,-5.947942 5.87838,-7.24724991 8.12863,-7.23468723 1.97682,0.0110362 2.35318,0.26204978 1.34761,0.89878243 -0.97601,0.6180098 -1.20179,1.8904241 -0.7514,4.2346872 C 253.8402,7.682796 253.73513,8.1342207 252.92247,7 c -0.8135,-1.1354047 -1.19852,-1.1946561 -1.58401,-0.2437694 -0.2801,0.6909268 -0.99037,0.958898 -1.57838,0.5954915 C 249.15466,6.977554 248.98036,7.1592075 249.3582,7.7705558 250.14199,9.0387638 248.08904,14 246.78047,14 c -0.49418,0 -0.62039,0.45 -0.28047,1 0.33992,0.55 1.51803,1 2.61803,1 1.1,0 1.74544,-0.411898 1.4343,-0.915328 -0.31114,-0.50343 0.56231,-2.25589 1.94098,-3.894356 C 253.87199,9.5518508 255,7.5438485 255,6.7280888 255,4.9499955 257.41275,2.7460805 258.34201,3.6753426 258.7039,4.0372375 259,5.1583333 259,6.1666667 c 0,1.643418 1.17443,2.1889054 4.58483,2.1295078 1.82204,-0.031734 0.32393,4.5980095 -1.69522,5.2388625 C 259.4879,14.297308 259.42601,16 261.8,16 c 2.36098,0 4.18164,-1.88428 3.51051,-3.633196 -0.34751,-0.905615 -0.0321,-1.197205 0.9057,-0.837331 2.45274,0.941204 7.06911,-1.34356 6.3741,-3.1547121 -0.42296,-1.1022303 -0.17594,-1.429731 0.79683,-1.0564436 0.7754,0.2975492 4.493,-0.9384571 8.26134,-2.7466806 6.74437,-3.2362641 9.56053,-3.5715623 17.01446,-2.02578 C 300.62738,2.9532386 306,10.749454 306,13.192675 c 0,1.650864 5.14421,7.752756 6.34463,7.525782 0.67152,-0.126972 1.08209,0.89256 0.98039,2.43453 -0.1782,2.70177 1.56525,3.800997 6.07997,3.833358 1.75127,0.01255 1.77715,-0.127601 0.32069,-1.736972 -1.17205,-1.2951 -1.32071,-2.221633 -0.57131,-3.560739 0.55715,-0.995561 0.68273,-2.570279 0.27908,-3.499373 C 317.37887,13.460207 318.14786,0 320.47261,0 c 2.38606,0 2.70436,3.2339362 3.24808,33 0.6712,36.745509 -0.10319,34.986605 12.77931,29.026088 9.42812,-4.362235 29.06827,-10.555149 39.75,-12.533939 l 9.75,-1.806187 0.16373,-7.092981 c 0.09,-3.90114 0.14738,-14.630481 0.1274,-23.842981 C 386.26175,3.2011186 386.51712,0 387.6274,0 c 1.42336,0 1.8933,12.40655 1.39205,36.75 L 388.80839,47 h 8.03071 c 12.72212,0 12.49144,-0.218494 13.91407,13.178876 1.01652,9.572884 0.96901,13.000317 -0.29611,21.361743 C 409.62827,87.018279 408.30618,96 407.51909,101.5 c -0.78709,5.5 -2.12101,12.25 -2.96426,15 -0.84325,2.75 -1.53805,5.0994 -1.54401,5.22089 -0.0123,0.25172 17.71702,5.66014 25.98918,7.92811 3.025,0.82937 10.77808,3.20678 17.22906,5.28313 14.99597,4.82671 13.73102,16.82369 11.14301,-105.68213 C 456.92135,7.9151196 457.05801,0 457.87707,0 458.64944,0 459,4.0154231 459,12.862402 v 12.862403 l 18.75,0.699773 c 11.96566,0.446573 21.28282,0.310813 25.75,-0.375203 7.51826,-1.154564 22.08344,-0.809907 35,0.828206 10.71363,1.358732 89.89614,1.379606 105,0.02768 14.8179,-1.32633 36.5,-0.355289 36.5,1.634666 0,1.856715 -83.93355,2.314992 -174.13014,0.95075 l -45.63014,-0.690166 0.50984,9.349744 c 0.28041,5.142359 0.64159,9.502361 0.80262,9.688893 0.16103,0.186532 14.61517,-0.08352 32.1203,-0.60011 C 511.17762,46.722446 531.8,46.663611 539.5,47.108295 c 7.7,0.444684 34.95488,0.533639 60.56641,0.197677 46.17334,-0.605684 53.46453,-0.23522 48.34349,2.456323 -2.02459,1.064099 -82.30059,1.9261 -126.76248,1.361172 C 492.80471,50.756994 461,51.838994 461,53.1867 c 0,0.512233 0.44012,0.659326 0.97804,0.326872 0.61786,-0.381857 0.78076,1.641394 0.44233,5.493932 l -0.53571,6.098396 31.5836,-0.30295 c 26.94287,-0.258436 31.54305,-0.09311 31.30767,1.125134 -0.51842,2.683136 -6.28829,3.328131 -34.02593,3.803648 L 463,70.20746 462.78631,79.85373 C 462.66878,85.159178 462.65115,92.425 462.74714,96 c 0.65937,24.55807 1.32405,38.30618 1.8968,39.23291 0.39539,0.63974 0.1957,0.78602 -0.49245,0.36072 -1.41346,-0.87357 -1.01272,2.94514 0.46405,4.42191 0.54362,0.54362 5.24002,1.55002 10.43643,2.23643 L 484.5,143.5 v 5.4811 5.48111 l 3.5,0.58374 c 8.98819,1.49909 11.5,4.90563 11.5,15.59638 v 8.43381 l -4,3.42438 c -2.2,1.88341 -4.6975,3.44128 -5.55,3.46193 -2.99311,0.0725 -5.91448,6.03755 -2.95688,6.03755 0.58934,0 0.91189,3.15543 0.79332,7.76108 -0.10988,4.2686 0.18774,8.38813 0.66139,9.15451 0.58626,0.94859 0.49262,1.16564 -0.29332,0.6799 -0.72477,-0.44793 -1.15451,0.0263 -1.15451,1.27406 0,1.09318 -0.63908,2.62667 -1.42017,3.40776 C 483.9732,215.88394 483.27578,242 484.83951,242 c 1.01856,0 2.42186,-16.1553 1.59131,-18.31969 -4.07297,-10.61399 53.64454,-15.4676 78.40816,-6.59354 2.93645,1.05228 6.32382,1.91323 7.5275,1.91323 2.46121,0 6.63352,2.58712 6.63352,4.11324 0,0.54991 -1.2375,0.30551 -2.75,-0.54311 -11.052,-6.20093 -34.98802,-9.64127 -52.67959,-7.57167 -21.53152,2.5188 -23.78026,2.90902 -26.30776,4.5651 -2.53407,1.66039 -2.55387,1.75183 -0.68602,3.16828 1.75023,1.32724 1.5408,1.39705 -2.32663,0.77545 l -4.25,-0.68309 -0.14537,4.3379 c -0.7377,22.01372 12.33481,37.3511 35.26639,41.37646 4.67197,0.82011 4.89432,2.30451 5.49653,36.69519 0.56599,32.32266 0.20349,33.3214 -14.0629,38.74547 -1.9811,0.75322 -2.35027,0.65175 -1.8998,-0.52217 C 515.1307,342.21703 512.74035,342 498.60699,342 H 482 v 4.875 c 0,5.68852 -0.93532,6.125 -13.125,6.125 -7.0956,0 -10.15799,2.82324 -4.8796,4.49854 2.4917,0.79083 184.67787,-0.22097 202.7546,-1.12603 12.81858,-0.6418 13.25,-0.59806 13.25,1.34335 0,2.1017 -31.06127,3.77099 -61.01921,3.27927 -5.76443,-0.0946 -43.46368,-0.13222 -83.7761,-0.0836 L 461.90937,361 l 0.65866,3.51096 c 0.39782,2.12052 0.20764,4.05442 -0.48021,4.88322 -1.89152,2.27914 0.43555,2.5261 29.68225,3.14997 25.45737,0.54304 67.38032,3.24384 84.63564,5.45248 13.19472,1.68889 21.51134,3.94934 31.21655,8.48461 L 617.29215,391 H 648.64607 680 v 2.5 2.5 h -26.97368 -26.97369 l 4.22565,4.25 c 7.21182,7.25339 8.30571,12.49485 9.23494,44.25 0.2897,9.9 0.70319,20.7 0.91887,24 0.21568,3.3 0.6898,20.9625 1.05359,39.25 l 0.66143,33.25 h -2.91321 -2.91321 l -0.67293,-50.75 C 634.54884,407.37322 633.76932,403.83279 614.5,394.20141 588.57137,381.24151 575.25888,379.08192 505,376.43799 c -58.06017,-2.18487 -91.44885,-1.40369 -79.01204,1.84861 1.09338,0.28593 2.41562,1.6447 2.93832,3.01949 0.52269,1.3748 1.43166,2.7971 2.01992,3.16066 1.32125,0.81658 11.04205,13.782 16.89427,22.53325 5.04607,7.54576 13.69171,24.41847 17.67793,34.5 1.52229,3.85 4.66826,10.825 6.99105,15.5 2.32279,4.675 5.89473,12.775 7.93764,18 2.04292,5.225 4.52402,11.3 5.51357,13.5 4.59837,10.22332 10.33039,31.96796 12.58719,47.75 0.61953,4.33249 0.50045,4.75 -1.35485,4.75 -2.16489,0 -2.20361,-0.10957 -4.24127,-12 -3.48096,-20.31253 -12.98418,-48.17815 -25.91887,-76 -3.19626,-6.875 -6.97032,-15.06608 -8.3868,-18.20241 -6.81074,-15.08017 -28.8324,-49.00992 -34.91419,-53.79386 l -2.52465,-1.98589 -4.62077,2.24108 c -4.32666,2.09844 -4.57695,2.43203 -3.93231,5.24108 2.90841,12.67355 -5.51183,24.69256 -15.38473,21.96008 -2.62547,-0.72664 -2.53561,-0.80998 1.72908,-1.60355 10.57179,-1.9672 15.84118,-12.12449 11.58029,-22.32223 -4.61173,-11.03741 -22.93944,-7.22394 -26.59848,5.53437 -1.53791,5.36239 -1.23897,6.51082 2.95662,11.35844 6.73187,7.77807 6.18484,17.41262 -1.39284,24.53148 -4.68861,4.40472 -17.74002,4.12503 -21.5467,-0.46175 -1.85875,-2.23965 -4.99738,-1.89862 -4.99738,0.543 0,12.5308 -15.88982,18.37306 -27.98213,10.28828 -4.67298,-3.1243 -5.54274,-2.96339 -7.68551,1.42188 -1.39023,2.84517 -3.20453,4.41531 -7.51924,6.50732 -6.34757,3.07766 -6.82804,3.00122 -16.04142,-2.55217 -5.58427,-3.36594 -6.33269,-3.10223 -7.1876,2.53255 -0.35566,2.34427 -2.38603,9.2123 -4.51191,15.2623 -12.24287,34.84162 -13.74202,38.54105 -22.48348,55.48195 -11.73674,22.74574 -12.43458,20.49131 6.64642,21.47171 l 13.73513,0.70572 0.92855,-2.32969 c 3.60382,-9.04181 8.34694,-26.9081 13.62696,-51.32969 1.92292,-8.89406 3.20689,-12.64707 4.9607,-14.5 1.94093,-2.05061 2.54669,-4.20767 3.36992,-12 l 1.00365,-9.5 -0.18002,12.45194 -0.18002,12.45194 8.12334,3.17335 c 23.50008,9.18021 71.65467,6.62551 98.62666,-5.23234 4.45239,-1.95744 4.43642,-1.87046 1.21395,-6.61276 -1.86331,-2.7421 -2.1539,-3.73213 -1.09546,-3.73213 1.18649,0 7.19416,8.85187 8.48362,12.5 0.1944,0.55 1.18034,2.8 2.19097,5 5.24112,11.4092 10.50464,30.8537 13.94077,51.5 0.59498,3.575 1.32777,7.7375 1.62842,9.25 0.4442,2.23467 0.18697,2.75 -1.37266,2.75 -1.5999,0 -2.12926,-1.20651 -3.18096,-7.25 -4.88408,-28.06604 -11.88004,-53.83796 -15.99371,-58.91812 l -1.71711,-2.12055 -8.42391,2.64954 C 389.5717,482.39122 382.43141,483.44596 357,483.47405 l -23.5,0.026 -10.28003,-3.36508 c -5.65401,-1.85079 -11.82871,-4.41604 -13.72154,-5.70055 -4.1403,-2.80968 -3.96201,-3.05219 -5.95785,8.10372 -2.77843,15.53032 -8.44045,37.69396 -12.57507,49.22442 -1.69429,4.72494 -0.83409,5.79197 5.69324,7.06215 3.21269,0.62517 6.74125,1.31818 7.84125,1.54001 6.0313,1.2163 -13.97577,0.38169 -25.00613,-1.04315 -12.72101,-1.64323 -64.62771,-2.2039 -79.49387,-0.85865 -22.89049,2.07137 -51.50373,2.72479 -84,1.91824 -38.994508,-0.96784 -99.914208,-0.97026 -105.955579,-0.004 -2.8212555,0.45113 -3.9785263,0.23719 -4.3802846,-0.80977 z M 222.29932,536.15043 c 33.81878,-0.99705 30.97536,0.45109 29.70257,-15.12732 -1.23871,-15.16126 1.11791,-14.3849 -30.50189,-10.04853 -8.73754,1.19827 -19.57225,1.28139 -17.5,0.13424 2.41494,-1.33684 29.63535,-4.87257 41.5,-5.39054 l 5,-0.21828 -0.35815,-6 c -0.19699,-3.3 -0.60037,-6.40113 -0.89641,-6.89139 -1.02301,-1.69421 -43.77667,1.40582 -68.24544,4.94843 l -18.5,2.67844 -5.78712,5.82721 c -5.35581,5.39292 -5.64101,5.9054 -3.82679,6.87635 4.76297,2.54906 11.85121,3.16599 24.12789,2.1 6.76013,-0.58699 12.5099,-0.84849 12.77727,-0.58112 1.04516,1.04516 -5.63566,2.79082 -12.29125,3.21163 -11.67313,0.73804 -11.83789,0.81597 -11.1268,5.26285 0.42934,2.68497 0.19226,4.18334 -0.79103,4.9994 -2.01024,1.66835 -2.74166,-0.0822 -1.99231,-4.76839 0.53173,-3.32526 0.33536,-4.03719 -1.22848,-4.45375 -13.9769,-3.72303 -15.72474,-3.61898 -16.16894,0.96258 -0.24626,2.53999 -0.94383,3.39926 -3.5,4.31131 l -3.19244,1.13908 2.75,1.47062 c 5.97966,3.19776 -3.88124,5.18326 -10.04966,2.02351 -2.55532,-1.30895 -9.05352,-2.84774 -17.47813,-4.13885 C 110.62267,523.84964 110.55011,522 114.625,522 c 1.37883,0 6.59027,0.97046 11.58098,2.15658 6.25494,1.48658 9.55571,1.85273 10.6245,1.17855 2.41219,-1.52157 2.55749,-3.33513 0.2672,-3.33513 -1.13794,0 -3.98794,-0.43822 -6.33333,-0.97383 C 110.90054,516.48996 109,516.66445 109,523.02432 c 0,2.6717 -0.47994,5.15426 -1.06653,5.5168 -1.67346,1.03425 -1.78658,0.39692 -1.20541,-6.79112 l 0.54576,-6.75 h 3.5492 c 1.95206,0 6.27795,0.63284 9.61309,1.4063 12.78085,2.96406 20.53226,3.86484 22.09525,2.56768 2.86345,-2.37645 1.62286,-3.77496 -3.78136,-4.26271 -2.8875,-0.26061 -11.325,-1.50654 -18.75,-2.76873 -7.425,-1.26219 -15.3,-2.32811 -17.5,-2.36872 l -4,-0.0738 -0.191301,6 c -0.301469,9.45532 -1.312117,16.12241 -2.739962,18.07511 -2.109632,2.88509 -2.788698,-0.99076 -1.606524,-9.16944 0.548993,-3.79812 1.007084,-9.25234 1.017978,-12.12049 0.01496,-3.93836 0.448163,-5.43837 1.769809,-6.12814 C 98.760291,505.10786 116.43787,502 120.3953,502 c 1.82999,0 2.98792,-0.74697 3.7497,-2.41889 0.70892,-1.55591 3.28781,-3.36752 7.22856,-5.0779 6.04311,-2.62285 16.72727,-7.98506 27.79336,-13.94906 3.1168,-1.67978 10.0918,-5.36986 15.5,-8.20018 11.53791,-6.03824 20.06376,-13.95088 37.97867,-35.24714 1.56992,-1.86625 5.39455,-6.14125 8.49916,-9.5 3.10461,-3.35876 8.38849,-9.48183 11.74194,-13.60683 8.99468,-11.06412 12.656,-15 13.95363,-15 2.03511,0 1.24589,3.99432 -1.34032,6.78343 -1.375,1.48287 -2.5,3.10222 -2.5,3.59854 0,1.08034 -7.17629,9.62827 -15.62247,18.60846 -3.36736,3.58027 -8.7647,9.65957 -11.99411,13.50957 -3.2294,3.85 -7.58137,8.74292 -9.67104,10.87316 -5.27948,5.38196 -4.68578,5.23388 7.78762,-1.94231 6.05,-3.48069 12.23919,-7.03897 13.75375,-7.9073 4.26269,-2.4439 8.9946,-0.85308 9.84607,3.31014 0.79377,3.8811 -1.70613,6.16631 -6.7456,6.16631 -1.93856,0 -4.35,0.96701 -6.11503,2.45219 C 221.74344,456.55222 201.44181,469 200.51252,469 c -3.86867,0 -35.12274,24.72311 -33.41409,26.43176 0.23913,0.23913 6.50231,-0.40403 13.91818,-1.42924 15.57731,-2.1535 44.31086,-5.0096 57.73339,-5.73866 l 9.25,-0.50242 0.0713,-16.63072 c 0.0392,-9.1469 0.22791,-18.20572 0.41933,-20.13072 0.19143,-1.925 0.61902,-6.50954 0.9502,-10.18786 0.68907,-7.65319 4.84911,-25.27619 6.81842,-28.88459 0.72868,-1.33515 2.31676,-4.00255 3.52908,-5.92755 2.98673,-4.74252 2.98384,-4.75082 -2.03504,-5.84477 C 256.24322,399.82609 252,395.60213 252,394.42807 c 0,-1.96215 -68.8482,-3.83547 -94.16941,-2.56229 -3.15509,0.15864 -12.46131,8.2837 -16.9343,14.78496 -1.64482,2.39066 -4.24393,4.99479 -5.7758,5.78695 -1.53187,0.79216 -4.70323,3.04275 -7.04747,5.0013 -4.58539,3.83098 -6.80246,4.42965 -7.70401,2.08026 -0.34401,-0.89649 0.64263,-2.49961 2.50055,-4.06295 2.66648,-2.24369 2.90895,-2.84012 1.8496,-4.54976 -1.52027,-2.45351 -0.19072,-3.45878 5.75345,-4.35016 3.48324,-0.52235 5.32505,-1.8274 11.58456,-8.20852 l 7.44283,-7.58742 -19,0.61695 c -10.45,0.33933 -27.0541,0.61823 -36.897998,0.61978 L 75.704004,392 l 0.875661,62.25 c 0.481613,34.2375 0.885713,66.525 0.897998,71.75 l 0.02234,9.5 7,0.31618 c 3.85,0.1739 10.825,0.70505 15.499997,1.18032 9.36642,0.95221 77.2273,0.48275 122.29932,-0.84607 z M 118,531.83153 C 113.63127,530.59818 111.79733,529 114.75078,529 c 3.33448,0 12.63927,2.11019 13.69922,3.10678 1.26373,1.1882 -5.93814,0.9985 -10.45,-0.27525 z m 31.17511,-3.49378 c 0.41237,-3.60187 3.32489,-3.90972 3.32489,-0.35145 0,1.61173 -0.64192,2.60993 -1.82489,2.83775 -1.47558,0.28417 -1.7627,-0.19175 -1.5,-2.4863 z M 197,486.99841 c 0,-3.41159 18.60821,-23.91363 21.1107,-23.25921 3.28349,0.85865 2.32563,2.34596 -13.46429,20.9065 C 201.92904,487.83987 197,489.35648 197,486.99841 Z M 82,451.73603 c 0,-1.8068 17.124371,-18.49011 19.39626,-18.89668 3.5936,-0.6431 2.56156,1.67931 -3.658498,8.23275 C 87.779671,451.56395 82,455.48026 82,451.73603 Z m 39.38113,-20.92837 c -1.28191,-2.07417 27.3442,-27.60095 30.75227,-27.42274 4.85526,0.25387 3.73557,2.25542 -5.6334,10.07022 -3.85,3.21134 -7.72036,6.56017 -8.6008,7.44183 -8.55836,8.57029 -14.96924,12.41675 -16.51807,9.91069 z M 71.801955,498 c -0.166075,-20.625 -0.231136,-52.93068 -0.14458,-71.7904 l 0.157375,-34.29039 -7.456386,0.29039 -7.456386,0.2904 -0.03922,16 c -0.02157,8.8 0.02143,30.175 0.09557,47.5 0.07414,17.325 -0.135449,42.16639 -0.465752,55.20308 l -0.600551,23.70308 6.803988,0.35986 c 3.742193,0.19792 7.389868,0.33153 8.105943,0.29692 1.050645,-0.0508 1.243671,-7.30142 0.999999,-37.56294 z m 189.708765,18.25 c 7.17789,-14.90278 12.70008,-27.84492 16.96065,-39.75 2.36199,-6.6 5.95522,-16.275 7.98495,-21.5 2.02974,-5.225 4.28986,-11.3 5.0225,-13.5 0.73264,-2.2 1.62647,-4.73198 1.98627,-5.62662 0.46905,-1.16626 -0.0259,-1.79732 -1.74882,-2.22974 -8.18628,-2.05463 -13.63692,-19.01919 -8.19046,-25.49195 3.06581,-3.64351 2.89123,-3.76716 -6.55889,-4.6457 l -7.53308,-0.70031 -4.1753,4.52966 c -10.82649,11.74536 -16.02372,65.19793 -10.34676,106.41466 1.69263,12.28914 1.85449,12.35046 6.59894,2.5 z m -112.5459,-6.18426 c 2.36829,-4.4252 0.7936,-4.92044 -9.12876,-2.87101 -5.23005,1.08025 -6.28989,0.9904 -11.0602,-0.93768 -4.46486,-1.80462 -6.1084,-1.9935 -10.69184,-1.22875 -8.19029,1.36655 -8.16096,2.55348 0.097,3.92656 4.02543,0.66931 9.11896,1.57196 11.31896,2.00587 8.46633,1.66985 18.335,1.21609 19.46482,-0.89499 z m 5.79139,-7.81574 c 0.27708,-0.84381 -0.75397,-1.25 -3.17288,-1.25 -3.41843,0 -4.41995,0.83005 -2.87075,2.37924 1.10562,1.10563 5.58459,0.26874 6.04363,-1.12924 z m 7.06379,-8.82792 c 5.59129,-4.78594 5.29874,-6.08166 -0.57,-2.52464 -2.6125,1.58343 -5.7625,3.18459 -7,3.55815 -3.15993,0.95386 -2.80362,2.54441 0.57,2.54441 1.78904,0 4.34816,-1.30805 7,-3.57792 z M 317.0156,442.1459 c 18.7565,-9.98061 5.99275,-33.05801 -13.92957,-25.18527 -4.15979,1.64383 -5.11842,1.78332 -4.13813,0.60215 0.70172,-0.84552 0.99021,-2.28169 0.64108,-3.19149 -0.52899,-1.37854 -0.38326,-1.44545 0.87461,-0.40151 1.21041,1.00455 2.8171,0.99273 8.11178,-0.0597 6.23969,-1.24026 6.83101,-1.19128 10.76352,0.89155 5.35174,2.83451 5.72445,2.79703 9.22402,-0.92775 6.42673,-6.8403 14.88406,-8.50107 22.82317,-4.48178 l 4.72504,2.39212 2.42655,-3.84392 c 2.74076,-4.34165 8.91457,-8.95133 11.94446,-8.91836 1.28205,0.014 0.47564,0.72206 -2.21147,1.94186 -17.54861,7.96614 -5.16034,32.57753 12.78403,25.39762 11.77181,-4.71015 11.73285,-23.96745 -0.0547,-27.03096 -2.475,-0.64324 -3.51782,-1.20574 -2.31739,-1.25 2.27552,-0.0839 2.752,-0.99853 3.90714,-7.49986 0.49108,-2.76392 2.00892,-5.23192 5.14854,-8.37154 3.94717,-3.94718 4.40354,-4.86369 4.0236,-8.08061 -0.2561,-2.16839 0.27771,-5.21119 1.32657,-7.56172 l 1.75512,-3.93325 -0.5559,6.13054 c -0.61774,6.81253 -1.18322,6.25769 7.85024,7.70263 2.00086,0.32005 4.80331,1.74728 6.22766,3.17163 C 413.65265,384.92538 422,378.69242 422,369.4575 c 0,-10.86662 -5.27267,-16.16619 -15.14075,-15.218 -5.56819,0.53503 -5.8519,0.34448 -2.27636,-1.52894 9.61822,-5.03949 22.3203,5.3478 19.91747,16.28779 L 423.84109,372 h 17.97219 17.97219 l -0.43732,-51.75 C 458.79478,254.76813 459.62098,259.61949 450,265.35889 l -5.5,3.28102 -0.16491,7.65722 c -0.27722,12.87147 -4.17984,19.23762 -13.29842,21.69299 l -3.98958,1.07429 0.61489,4.48609 c 0.95877,6.99504 -4.54942,10.60804 -25.82504,16.93945 l -8.66307,2.57804 -0.70893,8.51068 c -0.82091,9.8549 -1.14944,9.16704 4.91977,10.30089 2.60193,0.48609 5.35568,1.72077 6.13602,2.75115 2.33713,3.08603 1.68411,3.48296 -2.25592,1.37123 -8.99256,-4.81972 -14.81926,-1.75174 -10.53837,5.54886 3.07902,5.25093 6.01266,6.645 9.0786,4.31416 0.93223,-0.70872 0.37658,0.15329 -1.23478,1.91556 -3.6179,3.95674 -4.62848,3.28758 -10.55244,-6.98739 C 382.7098,341.58649 381,336.18048 381,328.60434 v -6.32576 l 4.75,-0.581 c 12.04587,-1.47341 39.22005,-12.71766 39.24317,-16.23821 0.008,-1.23827 -10.46382,-22.11661 -12.05416,-24.03285 -0.86191,-1.03855 -0.37281,-1.63877 2.22834,-2.73455 C 441.30271,267.68201 466,251.22892 466,244.82777 c 0,-7.53163 -33.85817,-37.72457 -42.48213,-37.88333 l -3.01787,-0.0555 2.88726,-2.19445 c 14.88185,-11.31085 30.04512,-29.69113 37.1111,-44.98451 5.89428,-12.75741 5.51174,-14.23586 -4.69612,-18.14962 -4.01623,-1.53985 -8.20224,-3.17637 -9.30224,-3.63671 -3.82998,-1.60282 -27.93545,-8.41048 -33.5,-9.46078 -11.46856,-2.16469 -15.64732,-4.38477 -14.01041,-7.44337 7.97675,-14.9047 11.52611,-67.188805 4.81682,-70.954631 -6.39921,-3.591783 -43.47728,4.913035 -67.10567,15.392428 -15.75625,6.988033 -13.70638,8.182451 -20.54405,-11.97057 -8.55886,-25.226 -18.96558,-44.6477064 -24.69391,-46.0854254 -6.81274,-1.7098877 -45.06193,29.8514334 -63.099,52.0661314 l -4.03327,4.967433 -11.91526,-6.136123 C 195.67221,49.6764 188.70288,47.114325 163.75415,40.409856 153.59759,37.680485 152.61064,37.882718 149.87,43.254819 c -6.78546,13.300601 -12.20318,57.110941 -8.63669,69.840481 0.69826,2.49221 0.49954,2.64374 -5.00309,3.81504 -7.25861,1.54509 -23.09997,5.87717 -25.73022,7.03634 -1.1,0.48479 -5.6,2.14144 -10,3.68145 -7.518627,2.63154 -20.431291,9.20683 -26.865334,13.68016 -8.186793,5.69194 9.72273,33.72667 33.149374,51.89048 6.12603,4.74981 6.13022,4.30565 -0.091,9.65851 -12.299214,10.58253 -30.789587,33.81948 -31.429612,39.49777 -1.620238,14.37472 53.570212,40.40024 59.554232,28.08331 l 2.21622,-4.56164 -4.01695,-3.977 c -4.95495,-4.90568 -5.33335,-7.26272 -0.48215,-3.00331 4.40428,3.86701 5.82132,3.87611 10.16163,0.0653 1.90325,-1.67108 6.46266,-4.446 10.13202,-6.16649 8.02023,-3.76052 8.09509,-3.8577 8.31627,-10.79519 0.11952,-3.74861 0.28996,-4.38548 0.53526,-2 0.85534,8.31793 0.53102,8.04119 8.62192,7.35726 4.21842,-0.35659 9.52171,-0.13189 12.63236,0.53522 6.07575,1.30302 7.86603,0.41809 10.10897,-4.99684 1.6089,-3.88425 2.2829,-3.12963 0.8573,0.95985 -1.64945,4.73161 -0.43703,7.83016 3.93695,10.0616 C 212.39774,261.34518 225,279.99083 225,294.10534 c 0,2.85805 0.41427,3.89466 1.55646,3.89466 1.85198,0 -0.58331,3.16036 -14.91649,19.35763 -16.20884,18.31687 -18.2637,26.13168 -9.32864,35.47769 10.67305,11.16392 26.51053,8.11534 43.64364,-8.40102 4.98826,-4.8087 9.28441,-8.52825 9.547,-8.26566 1.45146,1.45146 -18.66914,18.74092 -25.50197,21.91363 -16.26221,7.55107 -34,-1.27128 -34,-16.91079 0,-4.10327 -0.154,-4.35807 -2.25,-3.72281 -9.67566,2.9325 -16.43715,2.96402 -27.41749,0.12782 -14.27313,-3.68673 -13.50278,-3.75519 -16.01872,1.42351 -8.64654,17.79763 3.03354,34.61597 27.74127,39.94513 40.3571,8.70454 104.42151,3.08509 140.91458,-12.3604 12.53593,-5.30577 16.90597,-4.46782 15.72549,3.01532 -2.50956,15.90834 -60.37694,29.57053 -63.12834,14.90428 l -0.66596,-3.54987 -6.70041,0.66589 c -12.21896,1.21432 -14.19946,3.89434 -8.05198,10.89594 5.85784,6.6717 15.85442,9.39877 35.18953,9.59971 6.13912,0.0638 10.37453,0.3218 9.41203,0.57333 -1.18414,0.30944 -1.7705,1.4845 -1.81339,3.63399 -0.0604,3.02572 -0.10862,3.06365 -1.01526,0.79831 C 295.36914,400.74465 284,407.68741 284,415.62296 c 0,11.95042 7.52746,20.28211 9.88074,10.9364 0.61499,-2.44236 1.56705,-4.71808 2.11569,-5.05715 0.6633,-0.40994 0.66348,0.2621 5.5e-4,2.00574 -4.91732,12.93352 8.82996,25.12372 21.01862,18.63795 z M 259.5,330.12821 c -9.68865,-4.03148 -13.45804,-7.51364 -20.45582,-18.89708 -10.6505,-17.3254 -7.35532,-43.02521 7.33271,-57.18934 5.47848,-5.28307 5.43606,-4.99986 1.58718,-10.59402 -1.66977,-2.42692 -2.43346,-4.18138 -1.69709,-3.89881 0.73637,0.28257 2.12798,1.84965 3.09247,3.4824 2.25711,3.82098 3.63699,3.74126 12.66876,-0.73193 4.10949,-2.03531 9.43666,-4.17281 11.83817,-4.75 4.06201,-0.97628 4.50256,-1.4154 6.31989,-6.29943 2.89611,-7.78323 4.66863,-7.63959 2.29477,0.18596 -1.09762,3.61835 -1.19388,5.12348 -0.3606,5.63848 0.62519,0.38638 -1.28365,1.02814 -4.24187,1.42613 -34.30139,4.61479 -54.50436,45.35093 -36.18149,72.95432 29.38903,44.27453 108.57918,4.72719 85.78254,-42.83957 -6.21162,-12.96098 -19.20767,-24.04155 -32.34731,-27.57969 -2.38381,-0.64189 -4.10919,-1.39208 -3.83419,-1.66708 0.83014,-0.83015 8.6701,1.61896 15.47548,4.83434 l 6.40665,3.027 3.90987,-3.81789 c 4.24244,-4.14263 5.06402,-3.6746 1.90988,1.088 -2.76217,4.17073 -2.52591,5.60114 1.57801,9.55383 1.9679,1.89539 5.18704,6.04205 7.15363,9.2148 3.78416,6.10506 4.88768,6.45587 9.74087,3.09667 3.95211,-2.73552 3.59064,-1.2674 -0.62822,2.55151 l -4.32702,3.91681 -0.0474,10.33319 c -0.15066,32.8239 -42.08593,59.81229 -72.96984,46.9614 z m 115.25,-14.84446 c -4.99986,-0.75742 -2.85398,-1.95692 2.67989,-1.49801 21.78909,1.80692 20.9692,-34.64505 -0.92747,-41.23497 -7.77957,-2.34131 -22.54605,9.71551 -18.97522,15.49325 0.32496,0.52579 0.11428,0.95598 -0.46818,0.95598 -3.3312,0 0.16403,-8.09998 5.90132,-13.67593 16.90077,-16.42553 40.43357,10.05219 28.53966,32.11113 -4.07794,7.56311 -7.63421,9.22947 -16.75,7.84855 z m -106,-3.32267 c -2.10984,-1.27851 -2.32809,-6.23641 -0.34692,-7.88065 4.68879,-3.89134 11.59692,-2.8594 11.59692,1.73236 0,4.89644 -7.00142,8.72282 -11.25,6.14829 z M 368.65677,298 c 1.25189,-7.50143 2.89039,-9.21587 7.12005,-7.45005 5.89869,2.46262 6.40542,3.70714 1.22318,3.00412 -5.32066,-0.7218 -6.2486,-0.19119 -7.77514,4.44593 l -1.15219,3.5 z M 374,286.62244 c 0,-0.20765 0.7875,-0.99515 1.75,-1.75 1.58606,-1.24387 1.62143,-1.2085 0.37756,0.37756 C 374.82119,286.91575 374,287.44548 374,286.62244 Z m 4.33333,-3.28911 c 0.36667,-0.36666 0.96667,-0.36666 1.33334,0 C 380.03333,283.7 379.73333,284 379,284 c -0.73333,0 -1.03333,-0.3 -0.66667,-0.66667 z M 195.03063,238.5 c 0,-0.55 0.43621,-1.675 0.96937,-2.5 0.53316,-0.825 0.96937,-1.05 0.96937,-0.5 0,0.55 -0.43621,1.675 -0.96937,2.5 -0.53316,0.825 -0.96937,1.05 -0.96937,0.5 z m 91.2384,-0.19299 c 0.97297,-0.25354 2.32297,-0.23687 3,0.0371 0.67703,0.27393 -0.11903,0.48137 -1.76903,0.46099 -1.65,-0.0204 -2.20394,-0.2445 -1.23097,-0.49804 z M 351.6252,436.50992 C 363.76498,428.55563 357.45172,409 342.74401,409 c -15.91179,0 -21.6573,21.05922 -7.72408,28.31135 4.14886,2.15944 12.71757,1.74589 16.60527,-0.80143 z M 250.67491,386.47535 c 0.22734,-0.68207 -8.43753,-1.02691 -25.91669,-1.03142 -48.42343,-0.0125 -67.02014,-5.85253 -78.27889,-24.58238 L 144.45866,357.5 H 99.479331 c -44.385715,0 -44.976439,0.0264 -44.76018,2 C 54.892087,361.07824 56,385.0352 56,387.19644 c 0,1.05238 194.32372,0.33259 194.67491,-0.72109 z M 119,353.03874 C 119,352.17648 110.08334,349 107.66289,349 106.14123,349 100,344.02646 100,342.79412 c 0,-0.60725 0.8495,-0.3353 1.88779,0.60433 2.10077,1.90117 11.2132,5.60155 13.7942,5.60155 0.91329,0 2.52995,0.7875 3.59257,1.75 1.61657,1.46425 3.91221,1.75 14.0592,1.75 h 12.12716 l 0.77123,-5.3189 c 0.42418,-2.92539 1.23215,-6.18013 1.79549,-7.23275 1.71116,-3.19734 -1.50392,-11.01794 -6.5759,-15.99571 -5.24095,-5.14361 -5.32661,-5.09983 -5.56498,2.84425 -0.10237,3.41171 -0.3771,6.20311 -0.6105,6.20311 -0.23341,0 -6.43753,1.56815 -13.78694,3.48477 l -13.36256,3.48478 -15.549031,-1.1852 -15.549027,-1.1852 -10.987723,5.45042 c -9.969688,4.94544 -10.99019,5.70522 -11.014351,8.20043 L 55,354 h 32 c 19.80689,0 32,-0.36627 32,-0.96126 z m 5.33333,-9.70541 c 0.36667,-0.36666 0.96667,-0.36666 1.33334,0 C 126.03333,343.7 125.73333,344 125,344 c -0.73333,0 -1.03333,-0.3 -0.66667,-0.66667 z m -8,-1 c 0.36667,-0.36666 0.96667,-0.36666 1.33334,0 C 118.03333,342.7 117.73333,343 117,343 c -0.73333,0 -1.03333,-0.3 -0.66667,-0.66667 z m 364.39641,7.24175 c 0.12635,-0.11067 0.25832,-30.54784 0.29326,-67.63815 L 481.08652,214.5 471.04326,214.21502 461,213.93003 v 8.67316 8.67315 l 4,4.33949 c 5.276,5.72378 5.33051,9.05161 0.25,15.26264 l -3.75,4.58446 0.19817,46.92749 c 0.15732,37.2514 0.4666,47.1075 1.5,47.80054 1.04084,0.69803 16.65786,0.14941 17.53157,-0.61588 z M 66,339.72878 c 3.025,-1.60464 5.792498,-3.21256 6.149996,-3.57316 C 72.507493,335.79503 72.255204,322 71.589352,305.5 70.923501,289 70.732768,273.925 71.1655,272 c 1.794391,-7.9823 1.007465,-18.377 -1.6655,-22 -3.179531,-4.30961 -3.139557,-7.3712 0.169736,-13 2.610374,-4.44001 2.642802,-4.72827 2.432321,-21.62166 -0.188069,-15.0946 -0.01847,-17.19644 1.432551,-17.75325 C 76.60366,196.44739 77,198.09821 77,212.05902 77,219.72656 77.226171,226 77.502603,226 c 0.929082,0 7.956447,-8.23867 9.282612,-10.88265 0.722043,-1.43954 3.50836,-4.35245 6.191816,-6.47314 3.322684,-2.62585 4.688271,-4.35284 4.281051,-5.41404 -0.393918,-1.02654 -0.198743,-1.31153 0.571979,-0.8352 C 98.473528,202.79266 99,202.59333 99,201.95203 c 0,-0.6413 0.637759,-0.92128 1.41724,-0.62216 2.21542,0.85014 3.0391,-2.65327 0.90043,-3.82987 -0.99972,-0.55 -5.19267,-4.3648 -9.31767,-8.47734 -4.125,-4.11254 -8.116808,-7.49021 -8.870685,-7.50593 -0.753877,-0.0157 -1.878877,-1.60092 -2.5,-3.52266 -1.673104,-5.17654 -3.178339,-3.3507 -2.792714,3.38754 0.512979,8.96355 -0.46034,12.81232 -3.143562,12.43048 C 72.569259,193.50986 72.5,193.10523 72.5,180.99988 c 0,-12.41754 -0.02397,-12.54636 -3.628631,-19.5 C 63.451277,151.04415 62.427587,147.28999 64.401755,145.10856 65.28079,144.13724 66,142.61501 66,141.72583 c 0,-0.88919 1.2375,-2.2091 2.75,-2.93316 l 2.75,-1.31646 0.746271,-33.9881 L 72.992542,69.5 66.417209,63.282433 C 56.919178,54.301193 59.80507,51.774707 69.518777,60.567132 L 74.416127,65 H 105.20806 C 131.91201,65 136,64.800857 136,63.5 c 0,-1 -1,-1.5 -3,-1.5 -3.38536,0 -3.35213,0.05637 -2.02475,-3.4349 C 132.13388,55.517657 134,55.169019 134,58 c 0,1.111111 0.66667,2 1.5,2 0.825,0 1.5,-0.81 1.5,-1.8 0,-0.99 0.5325,-2.3325 1.18333,-2.983333 1.48416,-1.484158 0.81841,-2.167458 -2.74056,-2.812823 C 129.47069,51.320899 131.10448,48 137.60934,48 c 4.97984,0 6.28415,-0.890734 7.40623,-5.05782 2.56168,-9.51335 12.96505,-9.458062 40.84661,0.217074 14.576,5.057995 14.70213,5.081565 29.86587,5.581098 l 15.22805,0.501651 7.47698,-7.308419 c 4.11233,-4.01963 8.62221,-8.003308 10.02195,-8.852618 4.98225,-3.023052 2.54367,-3.31576 -21.20503,-2.545281 -13.0625,0.423787 -56.375,0.894214 -96.25,1.045393 -39.875,0.15118 -73.013315,0.307284 -73.6407,0.346897 -1.520367,0.096 -2.375931,15.294856 -0.917926,16.306712 C 57.023618,48.638765 73.25,48.983156 92.5,49 c 32.51201,0.02845 39.31084,0.521935 37.13804,2.695627 -0.44223,0.442405 -16.1792,0.882792 -34.971044,0.978638 -38.281296,0.195249 -40.066357,0.446449 -38.635125,5.436864 0.507134,1.768273 0.893195,25.647116 0.861667,53.296251 -0.07546,66.17177 -0.07231,66.76249 0.604109,113.36556 0.321497,22.15011 0.20875,46.00011 -0.250548,53 -0.459298,6.99988 -0.59029,22.40206 -0.291093,34.22706 0.299197,11.825 0.210766,23.46238 -0.196512,25.86085 C 55.56682,344.88453 56.08367,344.98901 66,339.72878 Z M 81,219.5 c 0,-0.275 0.225,-0.5 0.5,-0.5 0.275,0 0.5,0.225 0.5,0.5 0,0.275 -0.225,0.5 -0.5,0.5 -0.275,0 -0.5,-0.225 -0.5,-0.5 z m 15,-20 c 0,-0.275 0.225,-0.5 0.5,-0.5 0.275,0 0.5,0.225 0.5,0.5 0,0.275 -0.225,0.5 -0.5,0.5 -0.275,0 -0.5,-0.225 -0.5,-0.5 z m -16,-16 c 0,-0.275 0.225,-0.5 0.5,-0.5 0.275,0 0.5,0.225 0.5,0.5 0,0.275 -0.225,0.5 -0.5,0.5 -0.275,0 -0.5,-0.225 -0.5,-0.5 z m 50,-128 c 0,-0.275 0.225,-0.5 0.5,-0.5 0.275,0 0.5,0.225 0.5,0.5 0,0.275 -0.225,0.5 -0.5,0.5 -0.275,0 -0.5,-0.225 -0.5,-0.5 z m 258,280.125 c 0,-2.40625 0.28125,-5.78125 0.625,-7.5 0.57302,-2.86508 0.40667,-3.125 -2,-3.125 -2.99399,0 -3.01299,0.10816 -1.52235,8.66809 1.2685,7.28422 2.89735,8.38438 2.89735,1.95691 z m 136.68903,1.114 c 1.86561,-1.86504 2.73835,-53.45901 1.01401,-59.946 -0.86322,-3.24745 -7.03769,-6.28881 -14.70304,-7.24228 -1.04453,-0.12993 -8.65833,-5.92617 -17.70519,-13.47863 -1.43982,-1.20198 -2.34677,-1.4472 -2.6131,-0.70651 -0.783,2.17761 -1.8046,-0.1868 -1.86148,-4.30826 -0.0636,-4.60932 -0.45063,-4.87984 -1.18528,-0.82849 -0.57731,3.18367 -2.46446,6.69543 -2.83263,5.27117 -0.14217,-0.55 -0.49336,17.675 -0.78041,40.5 -0.28705,22.825 -0.45217,41.725 -0.36694,42 0.50217,1.62019 39.34603,0.4265 41.03406,-1.261 z M 488,258.5 c 0,-0.275 0.225,-0.5 0.5,-0.5 0.275,0 0.5,0.225 0.5,0.5 0,0.275 -0.225,0.5 -0.5,0.5 -0.275,0 -0.5,-0.225 -0.5,-0.5 z m -296.50023,78.36392 c 1.99142,-0.7201 4.76351,-3.36616 7.571,-7.22678 2.43607,-3.3499 8.05355,-10.15116 12.48328,-15.11393 13.86719,-15.53587 14.16744,-16.29937 10.85057,-27.59171 -13.52838,-46.05766 -77.28876,-51.38098 -89.46507,-7.46939 -8.9063,32.11886 28.11733,68.4101 58.56022,57.40181 z M 160,319.02305 c 0,-5.1006 2.92799,-7.28328 9.16832,-6.83454 4.28361,0.30803 4.33051,0.35202 4.22632,3.96338 C 173.21072,322.52658 172.70168,323 166.03138,323 H 160 Z M 119,335 c 3.4433,-1.1 7.31109,-2 8.59509,-2 5.03685,0 5.92758,-8.9052 1.76981,-17.69398 -2.74097,-5.79394 -4.07342,-10.07825 -5.20056,-16.7217 -0.60642,-3.57427 -1.06935,-4.05381 -5.3096,-5.5 C 113.64086,291.30606 108,287.34261 108,285.45742 c 0,-1.58229 2.74324,-2.68188 3.52699,-1.41375 0.32508,0.52598 1.66293,0.95633 2.97301,0.95633 1.31008,0 2.66008,0.45 3,1 1.6897,2.73399 6.27516,1.0516 6.68424,-2.45243 0.40669,-3.48356 -5.51286,-7.5253 -11.06759,-7.55671 -0.88916,-0.005 -3.86665,-1.11596 -6.61665,-2.46873 -2.75,-1.35277 -5.75,-2.47366 -6.666667,-2.49086 -0.916666,-0.0172 -1.816666,-0.36877 -2,-0.78127 -0.183333,-0.4125 -3.173604,-2.22806 -6.645046,-4.03457 l -6.311712,-3.28457 -1.905018,2.28457 c -1.04776,1.25651 -1.91999,2.62207 -1.938288,3.03457 -0.0183,0.4125 -0.975646,1.69238 -2.12744,2.84417 -2.03201,2.03201 -2.085042,2.84088 -1.786614,27.25 0.169156,13.83571 0.255267,27.46932 0.191357,30.29692 l -0.1162,5.14109 11.152814,1.12763 c 6.134048,0.6202 14.077814,1.2575 17.652814,1.41623 3.575,0.15873 6.55388,0.37531 6.61973,0.48128 C 112.68558,336.91329 115.5567,336.1 119,335 Z m 313.36422,-40.37882 c 5.12541,-2.14153 7.38883,-5.80163 8.18493,-13.23558 0.77255,-7.21394 -0.0806,-9.23024 -3.18125,-7.51882 -1.02735,0.56704 -4.7929,2.25495 -8.3679,3.75091 -9.16469,3.83497 -9.75468,4.51371 -7.1289,8.20129 1.1709,1.64437 2.1289,3.78486 2.1289,4.75665 0,4.40776 3.47485,6.08846 8.36422,4.04555 z M 78.964816,261.06574 C 79.534167,260.0019 80,258.6519 80,258.06574 c 0,-1.188 -2.992067,-1.50148 -3.013655,-0.31574 -0.0075,0.4125 -0.284994,1.7625 -0.616631,3 -0.744979,2.77988 1.152765,3.01077 2.595102,0.31574 z M 487,247.5 c 0,-0.275 -0.225,-0.5 -0.5,-0.5 -0.275,0 -0.5,0.225 -0.5,0.5 0,0.275 0.225,0.5 0.5,0.5 0.275,0 0.5,-0.225 0.5,-0.5 z m -28.47956,-32.52716 c 0.98155,-16.24525 -0.4037,-43.31461 -2.14273,-41.87135 -0.75774,0.62887 -1.37771,1.58828 -1.37771,2.13202 0,2.92982 -17.74555,22.81058 -23.98849,26.87486 l -2.47053,1.60836 3.64431,1.89164 c 3.31181,1.71905 14.56819,10.69704 22.12986,17.6506 3.76334,3.46069 3.45934,4.05968 4.20529,-8.28613 z M 480.48486,182.75 c 0.39265,-16.0875 0.55669,-30.825 0.36452,-32.75 L 480.5,146.5 h -5.39782 -5.39783 l -1.70815,6 c -0.93949,3.3 -2.65599,8.1352 -3.81445,10.74489 -1.93751,4.36467 -2.10059,6.46369 -2.03508,26.19409 l 0.0712,21.4492 2.64106,0.40608 c 1.45258,0.22334 5.40202,0.4735 8.77653,0.55591 L 479.77095,212 Z m 7.44568,-1.21408 c 9.38099,-4.8511 11.45819,-16.71705 3.59293,-20.52456 -7.62909,-3.69318 -11.07039,-0.82692 -6.09969,5.08042 3.19324,3.79495 3.20075,4.67316 0.0762,8.90822 -4.4288,6.00289 -3.15622,9.42494 2.43054,6.53592 z M 91.269533,127.94966 C 96.34629,126.31142 102.3,124.07918 104.5,122.98914 c 5.53835,-2.74411 14.96996,-5.99533 21.37684,-7.36893 l 5.37683,-1.15276 0.23635,-15.983725 c 0.12999,-8.791049 0.76595,-18.193191 1.41324,-20.89365 1.72887,-7.21275 2.51435,-7.00731 -28.43608,-7.43739 L 77,69.771008 76.916667,98.635504 C 76.870833,114.51098 76.702665,128.625 76.542959,130 c -0.426001,3.66769 0.347087,4.30206 3.069173,2.51849 1.334814,-0.87461 6.580645,-2.93058 11.657401,-4.56883 z M 128,79 c 0,-0.733333 0.3,-1.033333 0.66667,-0.666667 0.36666,0.366667 0.36666,0.966667 0,1.333334 C 128.3,80.033333 128,79.733333 128,79 Z m 1,-3 c 1.95837,-1.265597 3.28218,-1.265597 2.5,0 -0.33992,0.55 -1.37898,0.993109 -2.30902,0.984687 C 127.73371,76.971491 127.70731,76.835399 129,76 Z M 320.61291,31.433649 c -0.43812,-1.141736 -6.61843,-0.739605 -6.60632,0.42985 0.004,0.350076 0.90066,1.986501 1.99341,3.636501 1.09275,1.65 1.98979,4.3875 1.99341,6.083333 0.004,1.695834 0.34409,3.423009 0.75659,3.838168 0.82152,0.826817 2.55452,-12.185553 1.86291,-13.987852 z M 237,24.566221 c 0,-0.979622 0.78376,-1.291657 2.47433,-0.985097 1.85943,0.337178 2.33566,0.0873 1.91632,-1.005486 -0.32002,-0.833958 0.33069,-2.009172 1.52567,-2.75545 4.26516,-2.663641 1.9,-2.84504 -2.91632,-0.223671 -2.75,1.496737 -5,3.099823 -5,3.562412 C 235,23.621518 234.325,24 233.5,24 c -0.825,0 -1.5,0.45 -1.5,1 0,0.55 1.125,1 2.5,1 1.50424,0 2.5,-0.571081 2.5,-1.433779 z M 244,24.5 c 0,-0.275 -0.225,-0.5 -0.5,-0.5 -0.275,0 -0.5,0.225 -0.5,0.5 0,0.275 0.225,0.5 0.5,0.5 0.275,0 0.5,-0.225 0.5,-0.5 z m 4.73074,-3.575591 c 0.1304,-1.731067 -0.0911,-1.870211 -1.33453,-0.838272 -1.33146,1.105017 -0.96708,2.0307 1.14099,2.89855 0.0204,0.0084 0.10755,-0.918703 0.19354,-2.060278 z m 10.93593,-2.591076 c -0.36667,-0.366666 -0.96667,-0.366666 -1.33334,0 C 257.96667,18.7 258.26667,19 259,19 c 0.73333,0 1.03333,-0.3 0.66667,-0.666667 z m -5.9375,-0.9375 c -0.3323,-0.332291 -1.1948,-0.367818 -1.91667,-0.07895 -0.79773,0.319226 -0.56078,0.556183 0.60417,0.604167 1.05416,0.04342 1.64479,-0.192928 1.3125,-0.52522 z m 3.85163,-9.1483635 c -1.15374,-1.1537418 -1.74564,0.6531777 -0.95886,2.9271695 L 257.42649,13.5 257.79405,11.164136 C 257.9962,9.8794111 257.90024,8.5669111 257.5808,8.2474695 Z M 289.66667,2.3333333 C 289.3,1.9666667 288.7,1.9666667 288.33333,2.3333333 287.96667,2.7 288.26667,3 289,3 c 0.73333,0 1.03333,-0.3 0.66667,-0.6666667 z M 655,478.613 C 655,477.10442 677.52274,455 679.05987,455 c 3.73158,0 0.40786,6.82202 -6.09006,12.5 -3.77654,3.3 -8.52126,7.4625 -10.54382,9.25 C 658.61429,480.11871 655,481.02545 655,478.613 Z M 0.5,460 c 0.33991869,-0.55 1.293034,-1 2.118034,-1 0.825,0 1.2218847,0.45 0.881966,1 -0.3399187,0.55 -1.293034,1 -2.118034,1 C 0.55696601,461 0.16008131,460.55 0.5,460 Z m 661.78946,-13.68806 c -0.47653,-1.24183 1.7126,-3.92231 8.28139,-10.14014 l 8.92915,-8.45209 0.3213,3.24666 c 0.602,6.08299 -15.63312,20.29355 -17.53184,15.34557 z M 521.21055,353.93912 c -14.08865,-1.31614 -17.6309,-3.66725 -11.11458,-7.37708 l 3.40403,-1.93796 -1.91054,2.19409 c -4.63104,5.31836 44.23356,9.51507 49.80842,4.27777 2.53394,-2.38051 5.0376,-0.13387 2.58684,2.32128 -1.36599,1.36843 -29.9758,1.71751 -42.77417,0.5219 z m 142.68144,-5.38047 c -0.24275,-0.24274 -12.58025,-0.67051 -27.41667,-0.95061 -31.28655,-0.59065 -67.54187,-2.30724 -73.92793,-3.50028 -2.47066,-0.46157 -4.81499,-0.44016 -5.30359,0.0484 -0.50088,0.50088 -3.73359,-0.30813 -7.55319,-1.89027 -8.27064,-3.42582 -7.66917,-0.42655 -7.96086,-39.69697 l -0.22975,-30.931 5.87327,-2.28391 c 5.34321,-2.0778 5.71917,-2.11364 4.1658,-0.39719 -2.63129,2.90755 1.20932,4.79033 14.59221,7.15352 6.22019,1.09838 11.54778,2.26039 11.83908,2.58225 0.94573,1.04495 -11.25381,-0.67585 -19.77379,-2.78918 -6.53559,-1.62112 -8.6114,-1.80402 -9.75,-0.85907 C 546.5727,276.59951 546.59802,278 548.5,278 c 0.83945,0 1.5,0.89164 1.5,2.02475 0,3.58514 14.76191,7.33549 37.5,9.52708 8.25,0.79517 17.7,1.72117 21,2.05776 3.3,0.3366 12.525,0.97156 20.5,1.41101 14.28749,0.7873 14.20689,0.79446 -5.5,0.48809 -20.39228,-0.31703 -37.73683,-2.00032 -56.5,-5.48333 -5.775,-1.07201 -12.075,-2.14435 -14,-2.38297 -1.925,-0.23862 -4.45878,-0.74421 -5.63062,-1.12354 -1.87945,-0.60837 -2.18691,-0.23753 -2.60808,3.14574 -0.60107,4.82838 -0.23931,5.22562 2.28822,2.51264 2.31185,-2.48149 4.4917,-2.81518 5.26283,-0.80565 0.55821,1.45467 -4.73173,5.96175 -6.99729,5.96175 -2.83694,0 -1.06642,1.33355 3.93494,2.96377 6.70281,2.18482 16.45847,3.31079 40.76091,4.70449 10.719,0.61472 21.73909,1.48172 24.48909,1.92667 l 5,0.80899 -5.22958,0.13138 c -6.53912,0.16427 -32.18565,-1.4779 -46.80435,-2.99693 -11.52321,-1.19737 -16.64035,-0.18706 -18.0821,3.57008 -0.28223,0.73546 -1.30301,1.13065 -2.26841,0.87819 -3.021,-0.79001 -4.81771,2.45749 -1.97425,3.56841 1.29728,0.50683 3.68839,1.43821 5.31357,2.06972 1.62519,0.6315 5.90019,1.55215 9.5,2.04588 3.59982,0.49374 9.47012,1.34967 13.04512,1.90208 29.01781,4.48386 57.69893,6.44947 86.75102,5.94535 15.72194,-0.27282 20.25079,-0.0718 20.25,0.89859 -0.001,1.57532 -53.52446,1.79289 -65.00102,0.26423 -12.16627,-1.62054 -37.82436,-4.89012 -47.18384,-6.01259 -10.1257,-1.21437 -16.42883,-0.19776 -19.08122,3.07755 -2.07089,2.55723 -0.84146,4.88055 2.6375,4.9842 2.06137,0.0614 2.0562,0.092 -0.16621,0.98396 -2.61222,1.04839 -2.14958,2.53121 2.23463,7.16227 8.42133,8.89548 19.57144,10.2631 83.80791,10.27948 38.72545,0.01 42.74888,0.16329 42.75,1.63006 0.002,2.113 -14.2715,4.27478 -16.10678,2.43949 z M 551.94174,337.52849 c -1.40705,-0.7653 -3.09646,-2.57265 -3.75426,-4.01635 -0.65779,-1.44371 -1.66592,-2.33448 -2.24029,-1.9795 -0.71985,0.44489 -0.70556,1.05358 0.046,1.95914 0.80088,0.96501 0.74741,1.4291 -0.20144,1.74835 -2.64252,0.88912 1.28107,3.76177 5.0807,3.71983 l 3.62756,-0.04 z M 547.5,315.5747 c -2.46596,-1.9854 -3.06202,-2.13936 -3.34839,-0.86486 -0.40733,1.81279 1.51083,3.2552 4.34839,3.26988 1.72077,0.009 1.58115,-0.32688 -1,-2.40502 z m 0.5,-13.01568 c 0,-0.79254 -0.45,-1.7191 -1,-2.05902 -0.55,-0.33992 -1,0.30852 -1,1.44098 0,1.13246 0.45,2.05902 1,2.05902 0.55,0 1,-0.64844 1,-1.44098 z m -2.49126,-24.93699 c 0.005,-0.93818 0.66678,-2.11247 1.47104,-2.60953 0.80427,-0.49707 1.14059,-1.22546 0.74739,-1.61866 -1.08396,-1.08397 -4.72717,2.64965 -4.72717,4.84448 0,1.0997 0.53715,1.74811 1.25,1.50893 0.6875,-0.23069 1.25393,-1.18703 1.25874,-2.12522 z m -8.69624,69.69486 c 0.72187,-0.28887 1.58438,-0.25335 1.91667,0.0789 0.33229,0.33229 -0.25834,0.56864 -1.3125,0.52522 -1.16495,-0.048 -1.4019,-0.28494 -0.60417,-0.60416 z M 561,346.94098 c 0,-0.58246 0.45,-0.7809 1,-0.44098 0.55,0.33992 1,0.81648 1,1.05902 0,0.24254 -0.45,0.44098 -1,0.44098 -0.55,0 -1,-0.47656 -1,-1.05902 z M 558.5,346 c -0.33992,-0.55 -0.14148,-1 0.44098,-1 0.58246,0 1.05902,0.45 1.05902,1 0,0.55 -0.19844,1 -0.44098,1 -0.24254,0 -0.7191,-0.45 -1.05902,-1 z M 640,334.9581 c -3.025,-0.41817 -13.375,-0.81818 -23,-0.88892 -20.47235,-0.15045 -70.37528,-5.23066 -58.38099,-5.94328 1.16546,-0.0693 5.89046,0.50556 10.5,1.27735 12.1537,2.03493 18.97436,2.52218 52.38099,3.74196 16.5,0.60247 36.525,1.41154 44.5,1.79792 l 14.5,0.70253 -17.5,0.0364 c -9.625,0.02 -19.975,-0.30576 -23,-0.72393 z m -85.66667,-7.62477 c 0.36667,-0.36666 0.96667,-0.36666 1.33334,0 C 556.03333,327.7 555.73333,328 555,328 c -0.73333,0 -1.03333,-0.3 -0.66667,-0.66667 z m 59.9357,-13.02632 c 0.97297,-0.25354 2.32297,-0.23687 3,0.0371 0.67703,0.27393 -0.11903,0.48137 -1.76903,0.46099 -1.65,-0.0204 -2.20394,-0.2445 -1.23097,-0.49804 z M 600,312.94896 c -2.475,-0.44039 -6.38594,-0.83407 -8.69098,-0.87484 -2.30504,-0.0408 -4.40517,-0.42067 -4.66695,-0.84424 -0.53628,-0.86772 13.22839,0.19336 20.85793,1.60788 4.92342,0.9128 4.93874,0.92689 1,0.91945 -2.2,-0.004 -6.025,-0.36786 -8.5,-0.80825 z m -46.25,-4.67236 c 1.7875,-0.22182 4.7125,-0.22182 6.5,0 1.7875,0.22183 0.325,0.40333 -3.25,0.40333 -3.575,0 -5.0375,-0.1815 -3.25,-0.40333 z m 89.57905,-0.20194 c -14.39371,-1.0123 -9.74568,-1.57948 11.5041,-1.40379 25.90826,0.21421 25.16704,0.18242 25.16586,1.07913 -10e-4,0.90462 -25.24571,1.12812 -36.66996,0.32466 z M 667.5,297 c 0.78983,-1.27798 9.52247,-1.27798 11.5,0 1.04979,0.67842 -0.54368,0.97397 -5.30902,0.98469 -4.28825,0.01 -6.58021,-0.3549 -6.19098,-0.98469 z m -42.914,-10.04167 c -10.34733,-0.78356 -28.07708,-2.87137 -30.47913,-3.58912 -4.55905,-1.3623 5.03104,-0.77195 25.39313,1.56315 4.95,0.56766 20.5875,1.0401 34.75,1.04987 16.48816,0.0114 25.75,0.37745 25.75,1.01777 0,1.16276 -39.90531,1.13275 -55.414,-0.0417 z m 8.64563,-6.97544 c -12.79761,-0.37747 -23.59761,-1.0406 -24,-1.47364 -0.4024,-0.43304 6.20242,-0.49977 14.67736,-0.14829 8.47495,0.35147 24.67495,0.6839 36,0.73872 11.8767,0.0575 19.53299,0.43852 18.09101,0.90032 -2.91291,0.93288 -12.6866,0.92914 -44.76837,-0.0171 z M 619.5,271.7965 c -14.13484,-0.83017 -46.26678,-5.1956 -47.45491,-6.44719 -0.69935,-0.73671 11.36047,0.53604 15.95491,1.68382 7.508,1.87564 25.89008,3.02588 58.25,3.64493 18.5625,0.35511 33.75,1.02281 33.75,1.48379 0,1.05326 -40.51178,0.80861 -60.5,-0.36535 z m -65.41667,-5.16105 c 0.22917,-0.2005 1.54167,-0.90032 2.91667,-1.55516 2.35727,-1.12265 2.38918,-1.10183 0.55887,0.36454 -1.593,1.27626 -4.84786,2.39128 -3.47554,1.19062 z m 15.25,-2.30212 c 0.36667,-0.36666 0.96667,-0.36666 1.33334,0 C 571.03333,264.7 570.73333,265 570,265 c -0.73333,0 -1.03333,-0.3 -0.66667,-0.66667 z M 560,263.5 c 0,-0.275 0.225,-0.5 0.5,-0.5 0.275,0 0.5,0.225 0.5,0.5 0,0.275 -0.225,0.5 -0.5,0.5 -0.275,0 -0.5,-0.225 -0.5,-0.5 z m 4.01008,-0.39239 c -1.69204,-0.47094 -2.09315,-0.93823 -1.25175,-1.45825 0.68357,-0.42247 2.23445,-0.0674 3.46242,0.79271 2.35052,1.64636 1.85222,1.79638 -2.21067,0.66554 z M 646.5,262.98152 c -11.55,-0.37867 -24.15,-1.18176 -28,-1.78464 -3.85,-0.60289 -12.4,-1.62167 -19,-2.26398 -15.30644,-1.4896 -25.54981,-3.10193 -15,-2.36103 3.85,0.27038 14.2,1.16277 23,1.98308 23.68537,2.2079 43.29382,3.38801 58.75,3.53582 7.5625,0.0723 13.75,0.53148 13.75,1.02036 0,0.94381 -0.86092,0.94048 -33.5,-0.12961 z m -129.48935,-7.72305 c 0.006,-0.41716 1.63637,-2.33347 3.62338,-4.25847 1.987,-1.925 6.06934,-6.7589 9.07188,-10.74199 4.94582,-6.56102 9.90832,-11.70357 6.29409,-6.52246 -7.93324,11.37254 -19.02332,23.94226 -18.98935,21.52292 z m 54.75101,0.0343 c 1.24391,-0.23919 3.04391,-0.23011 4,0.0202 0.95609,0.25029 -0.0617,0.446 -2.26166,0.4349 -2.2,-0.0111 -2.98225,-0.21589 -1.73834,-0.45508 z m 65.54951,-1.04095 c 8.14615,-0.16828 21.19615,-0.16789 29,8.6e-4 7.80386,0.16876 1.13883,0.30644 -14.81117,0.30596 -15.95,-4.7e-4 -22.33497,-0.13854 -14.18883,-0.30682 z m -54.04214,-2.94478 c 0.97297,-0.25354 2.32297,-0.23687 3,0.0371 0.67703,0.27393 -0.11903,0.48137 -1.76903,0.46099 -1.65,-0.0204 -2.20394,-0.2445 -1.23097,-0.49804 z M 576,250.5 c 0,-0.275 0.225,-0.5 0.5,-0.5 0.275,0 0.5,0.225 0.5,0.5 0,0.275 -0.225,0.5 -0.5,0.5 -0.275,0 -0.5,-0.225 -0.5,-0.5 z m 1.5,-2.5 c 0.33992,-0.55 0.84303,-1 1.11803,-1 0.275,0 0.22189,0.45 -0.11803,1 -0.33992,0.55 -0.84303,1 -1.11803,1 -0.275,0 -0.22189,-0.45 0.11803,-1 z m 71,-1.09513 c -6.05,-0.44324 -19.775,-1.28994 -30.5,-1.88156 -20.85458,-1.1504 -39.13741,-3.15497 -37.5,-4.1116 0.55,-0.32132 5.275,-0.0125 10.5,0.68636 5.225,0.69883 20.525,1.79768 34,2.44188 13.475,0.64421 31.475,1.74328 40,2.44237 l 15.5,1.27108 -10.5,-0.0213 c -5.775,-0.0117 -15.45,-0.38397 -21.5,-0.82721 z M 579,245.5 c 0,-0.275 0.225,-0.5 0.5,-0.5 0.275,0 0.5,0.225 0.5,0.5 0,0.275 -0.225,0.5 -0.5,0.5 -0.275,0 -0.5,-0.225 -0.5,-0.5 z m 73.17971,-5.5394 c -4.02616,-0.42231 -7.51523,-0.96278 -7.75349,-1.20104 -0.68515,-0.68516 25.53076,0.34158 31.07378,1.21698 6.84714,1.08137 -12.98824,1.06781 -23.32029,-0.0159 z M 612,236.90721 c -4.675,-0.44766 -10.525,-1.27355 -13,-1.8353 l -4.5,-1.02138 5.5,0.58452 c 3.025,0.32149 12.25,1.15056 20.5,1.84237 10.61866,0.89044 12.80933,1.25578 7.5,1.25078 -4.125,-0.004 -11.325,-0.37333 -16,-0.82099 z m -30.30674,-4.00047 c 0.766,-0.766 2.69678,-0.80157 6.45,-0.1188 l 5.35674,0.97447 -6.45,0.11879 c -4.66682,0.086 -6.14775,-0.18345 -5.35674,-0.97446 z m 84.62954,-2.82903 c -5.04745,-0.32932 -9.45689,-0.87846 -9.79874,-1.22031 -0.9798,-0.97981 21.86465,0.27724 22.92594,1.26152 0.56562,0.52459 -0.0413,0.81563 -1.5,0.71932 -1.3475,-0.089 -6.57974,-0.4312 -11.6272,-0.76053 z M 537,229.09783 c 0,-1.6162 5.65039,-3.04786 6.93658,-1.75756 0.72192,0.72422 6.86549,1.36672 16.35973,1.71092 l 15.20369,0.5512 -19.25,0.1988 C 545.32798,229.91399 537,229.6097 537,229.09783 Z m -24.75,-2.81408 c 1.5125,-0.22913 3.9875,-0.22913 5.5,0 1.5125,0.22912 0.275,0.41659 -2.75,0.41659 -3.025,0 -4.2625,-0.18747 -2.75,-0.41659 z m -6.98097,-0.97674 c 0.97297,-0.25354 2.32297,-0.23687 3,0.0371 0.67703,0.27393 -0.11903,0.48137 -1.76903,0.46099 -1.65,-0.0204 -2.20394,-0.2445 -1.23097,-0.49804 z m -5.45653,-0.99012 c 0.72187,-0.28887 1.58438,-0.25335 1.91667,0.0789 0.33229,0.33229 -0.25834,0.56864 -1.3125,0.52522 -1.16495,-0.048 -1.4019,-0.28494 -0.60417,-0.60416 z m 131,0 c 0.72187,-0.28887 1.58438,-0.25335 1.91667,0.0789 0.33229,0.33229 -0.25834,0.56864 -1.3125,0.52522 -1.16495,-0.048 -1.4019,-0.28494 -0.60417,-0.60416 z M 544,223.5 c 0,-0.275 0.225,-0.5 0.5,-0.5 0.275,0 0.5,0.225 0.5,0.5 0,0.275 -0.225,0.5 -0.5,0.5 -0.275,0 -0.5,-0.225 -0.5,-0.5 z m 72.76166,-0.20726 c 1.24391,-0.23919 3.04391,-0.23011 4,0.0202 0.95609,0.25029 -0.0617,0.446 -2.26166,0.4349 -2.2,-0.0111 -2.98225,-0.21589 -1.73834,-0.45508 z M 603.75,222.29427 c 1.2375,-0.23836 3.2625,-0.23836 4.5,0 1.2375,0.23835 0.225,0.43337 -2.25,0.43337 -2.475,0 -3.4875,-0.19502 -2.25,-0.43337 z M 664,221.81171 c -11.21024,-0.93531 -30.86872,-3.12914 -48,-5.35667 -5.775,-0.75091 -17.475,-2.08388 -26,-2.96216 -14.68489,-1.51289 -32.24057,-4.189 -29,-4.42062 0.825,-0.059 6.9,0.5845 13.5,1.42993 33.57234,4.30046 71.04207,8.18439 97.25,10.08048 4.5375,0.32828 8.25,1.00647 8.25,1.5071 0,1.00349 -0.80804,0.98945 -16,-0.27806 z M 545.5,221 c 0.33992,-0.55 0.81648,-1 1.05902,-1 0.24254,0 0.44098,0.45 0.44098,1 0,0.55 -0.47656,1 -1.05902,1 -0.58246,0 -0.7809,-0.45 -0.44098,-1 z m 44.26166,-0.70726 c 1.24391,-0.23919 3.04391,-0.23011 4,0.0202 0.95609,0.25029 -0.0617,0.446 -2.26166,0.4349 -2.2,-0.0111 -2.98225,-0.21589 -1.73834,-0.45508 z M 485,216.5 c 0,-0.275 0.225,-0.5 0.5,-0.5 0.275,0 0.5,0.225 0.5,0.5 0,0.275 -0.225,0.5 -0.5,0.5 -0.275,0 -0.5,-0.225 -0.5,-0.5 z m 160,-4.5 -11.5,-0.60107 13,-0.10057 c 7.15,-0.0553 15.475,0.24157 18.5,0.65974 l 5.5,0.7603 -7,-0.0587 C 659.65,212.62747 651.325,212.33059 645,212 Z m -103.81144,-3.03896 c -3.60657,-3.36002 -1.89291,-9.13423 3.03263,-10.21852 1.25335,-0.27591 4.88261,-1.21047 8.06504,-2.0768 5.45131,-1.48397 8.71377,-1.37882 8.71377,0.28087 0,0.40293 -3.2625,1.32723 -7.25,2.054 -9.30547,1.69603 -9.83023,2.13489 -9.08183,7.59509 0.67027,4.89013 -0.16218,5.45602 -3.47961,2.36536 z M 672.5,209.96122 c -1.65,-0.45904 -5.025,-1.29468 -7.5,-1.85698 -4.27922,-0.97221 -4.1811,-0.99788 2,-0.52313 8.92461,0.68548 13,1.47867 13,2.53018 0,1.06548 -3.37332,0.99798 -7.5,-0.15007 z m -118.23097,-1.65421 c 0.97297,-0.25354 2.32297,-0.23687 3,0.0371 0.67703,0.27393 -0.11903,0.48137 -1.76903,0.46099 -1.65,-0.0204 -2.20394,-0.2445 -1.23097,-0.49804 z M 641.5,207 c -6.81878,-0.63008 -6.74112,-0.64833 3,-0.7051 5.5,-0.0321 11.35,0.28525 13,0.7051 3.7799,0.96182 -5.5911,0.96182 -16,0 z M 548,206.5 c 0,-0.275 0.225,-0.5 0.5,-0.5 0.275,0 0.5,0.225 0.5,0.5 0,0.275 -0.225,0.5 -0.5,0.5 -0.275,0 -0.5,-0.225 -0.5,-0.5 z m 52.5,-1.62123 c -3.72196,-1.17777 -17.95392,-1.50707 -22,-0.50903 -2.97057,0.73274 -2.97644,0.72606 -0.59861,-0.68107 l 2.40139,-1.42108 -2.90139,-1.05485 c -4.31475,-1.5687 -1.07494,-1.41705 13.22945,0.61923 7.07804,1.00759 14.21916,1.9023 15.86916,1.98824 1.65,0.0859 7.95,0.53488 14,0.99764 l 11,0.84137 -14,0.0844 c -7.7,0.0464 -15.35,-0.34276 -17,-0.86489 z M 564,203.09385 c -2.4937,-0.70501 -2.49433,-0.7083 -0.25,-1.3067 1.2375,-0.32995 2.25,-1.26458 2.25,-2.07695 0,-1.52563 4.70269,-3.00028 5.49251,-1.72232 0.24463,0.39582 -0.73457,1.25701 -2.17599,1.91377 -2.90369,1.32301 -2.22955,2.6755 1.68348,3.37749 1.84326,0.33068 1.58056,0.45808 -1,0.485 -1.925,0.0201 -4.625,-0.28156 -6,-0.67029 z m 106.5,0.30054 c -1.87611,-0.3126 -27.77944,-2.08937 -44.5,-3.05235 -13.10583,-0.7548 -52.46287,-5.08178 -55,-6.0468 -1.08365,-0.41217 -0.80608,-0.76582 1,-1.27409 1.375,-0.38695 3.04409,-0.28519 3.70909,0.22614 2.18117,1.67714 19.32515,3.48743 53.79091,5.67997 7.7,0.48984 19.175,1.37774 25.5,1.97312 6.325,0.59538 14.5375,1.08636 18.25,1.09107 3.82763,0.005 6.75,0.44149 6.75,1.00855 0,0.93723 -4.99708,1.14468 -9.5,0.39439 z M 489,200.5 c 0,-0.275 0.225,-0.5 0.5,-0.5 0.275,0 0.5,0.225 0.5,0.5 0,0.275 -0.225,0.5 -0.5,0.5 -0.275,0 -0.5,-0.225 -0.5,-0.5 z m 169,-5.5 -16.5,-0.5754 19.25,-0.2123 C 673.0582,194.07656 680,194.36061 680,195 c 0,0.55 -1.2375,0.90446 -2.75,0.7877 C 675.7375,195.67093 667.075,195.31647 658,195 Z M 548.75,193.31067 C 547.7875,193.05915 547,192.43635 547,191.92668 547,191.417 546.52842,191 545.95203,191 c -1.88612,0 -5.8881,-5.44149 -5.92043,-8.05 -0.0446,-3.59934 1.5161,-4.76037 8.15474,-6.06644 7.1879,-1.41414 7.18137,-1.714 -0.11252,-5.16252 -21.64596,-10.23409 -15.90702,-13.5981 24.62463,-14.43428 l 29.59937,-0.61065 3.57672,-4.08805 C 612.23106,145.32278 630.36036,127 631.19239,127 c 2.64841,0 -0.57411,5.0391 -10.64821,16.65073 -12.77091,14.72004 -12.6743,14.33703 -3.62751,14.38199 3.62083,0.018 9.67893,0.43157 13.46245,0.91907 8.09844,1.04345 8.3476,0.96982 11.71619,-3.46225 1.42741,-1.87807 4.57741,-5.59331 7,-8.25611 2.42258,-2.66279 8.64917,-10.32964 13.83687,-17.03743 5.92625,-7.66277 10.10785,-12.196 11.25,-12.196 2.18355,0 2.3649,2.31068 0.3719,4.73857 -0.79526,0.96879 -5.78515,7.61143 -11.08865,14.76143 -5.3035,7.15 -11.48726,14.90307 -13.74171,17.22903 -5.13881,5.30185 -5.72531,4.97581 10.27628,5.71273 17.26881,0.79529 20,1.23676 20,3.23276 0,1.35311 -0.98353,1.48897 -6.75,0.93237 -3.7125,-0.35834 -13.5,-0.87176 -21.75,-1.14093 -8.25,-0.26917 -17.925,-0.94542 -21.5,-1.50277 -17.54684,-2.73563 -90,-2.3222 -90,0.51355 0,1.32888 6.7709,4.52326 9.58762,4.52326 1.05567,0 1.3588,0.59344 0.95424,1.86811 -0.44726,1.4092 0.1503,2.17595 2.43261,3.12132 1.66404,0.68926 3.02553,1.59854 3.02553,2.0206 0,0.42206 1.58751,1.06521 3.52779,1.42921 5.31336,0.99679 3.37781,2.2155 -4.7556,2.99434 -16.8798,1.61637 -16.06952,4.30809 3.22781,10.72262 7.14369,2.3746 7.75273,2.73061 3.81684,2.2311 -3.43484,-0.43592 -5.2934,-0.16692 -6.97251,1.00918 -2.32605,1.62923 -2.98177,1.72759 -6.09433,0.91419 z m 66.25,-2.2403 c 0,-0.55 0.92734,-1.4963 2.06077,-2.10289 5.26881,-2.81979 -0.39426,-4.18367 -28.37542,-6.83387 -9.80578,-0.92875 -14.05576,-2.12621 -7.60202,-2.14193 1.87917,-0.005 11.29167,0.91039 20.91667,2.03326 9.625,1.12287 21.325,2.48305 26,3.02261 15.26363,1.76164 35.88584,2.89489 44.27805,2.4332 5.48039,-0.3015 7.38834,-0.15686 5.72195,0.43378 -5.06018,1.79355 -32.97379,0.9654 -51.15737,-1.51774 -4.01382,-0.54813 -4.91199,-0.33273 -6.5,1.55888 -2.29571,2.7346 -5.34263,4.51092 -5.34263,3.1147 z m -18.104,-2.5077 c -0.24053,-0.24053 -5.15303,-0.65969 -10.91666,-0.93146 C 573.74337,187.05424 575,187.23666 575,186.03737 c 0,-1.14248 9.66903,-0.54634 22.5,1.38724 7.09948,1.06986 8.03214,1.3794 4.41667,1.46583 -2.52084,0.0603 -4.78014,-0.0872 -5.02067,-0.32777 z m -28.56267,-4.22934 c 0.36667,-0.36666 0.96667,-0.36666 1.33334,0 C 570.03333,184.7 569.73333,185 569,185 c -0.73333,0 -1.03333,-0.3 -0.66667,-0.66667 z m -2.92834,-4.17634 c 1.96921,-2.22971 5.09154,-2.76226 7.44632,-1.27005 0.97866,0.62017 0.565,1.00383 -1.5,1.3912 -1.56822,0.29419 -3.97631,0.8726 -5.35131,1.28536 -2.49154,0.74794 -2.49355,0.74319 -0.59501,-1.40651 z M 633.5,177.88263 c -8.8,-0.44296 -18.25,-1.25542 -21,-1.80545 -4.26903,-0.85385 -3.68425,-0.91706 4,-0.43239 14.88086,0.93859 15.41054,0.95764 32.25,1.15997 10.0365,0.12058 16.25,0.57761 16.25,1.19524 0,1.12301 -7.40694,1.09541 -31.5,-0.11737 z m 39.76375,0.39979 c 1.52006,-0.22986 3.77006,-0.22371 5,0.0136 1.22994,0.23736 -0.0137,0.42542 -2.76375,0.41792 -2.75,-0.008 -3.75631,-0.20172 -2.23625,-0.43157 z M 581.5,174 c -4.21192,-1.07175 9.50966,-1.11694 15.5,-0.051 3.89046,0.69225 3.34864,0.80164 -4,0.80756 -4.675,0.004 -9.85,-0.33667 -11.5,-0.75652 z m -19.73834,-3.70726 c 1.24391,-0.23919 3.04391,-0.23011 4,0.0202 0.95609,0.25029 -0.0617,0.446 -2.26166,0.4349 -2.2,-0.0111 -2.98225,-0.21589 -1.73834,-0.45508 z M 630,170.13067 c 1.375,-0.38359 11.725,-0.42822 23,-0.0992 l 20.5,0.59824 -23,0.0992 c -12.65,0.0545 -21.875,-0.21466 -20.5,-0.59824 z m -73.1875,-0.81378 c 0.72187,-0.28887 1.58438,-0.25335 1.91667,0.0789 0.33229,0.33229 -0.25834,0.56864 -1.3125,0.52522 -1.16495,-0.048 -1.4019,-0.28494 -0.60417,-0.60416 z m 66.9375,0.0208 c 0.6875,-0.27741 1.8125,-0.27741 2.5,0 0.6875,0.27741 0.125,0.50439 -1.25,0.50439 -1.375,0 -1.9375,-0.22698 -1.25,-0.50439 z M 593,167.93713 C 593,167.42171 594.875,167 597.16667,167 c 4.93483,0 4.77586,0.49432 -0.41667,1.29559 -2.07727,0.32055 -3.75,0.16065 -3.75,-0.35846 z m 45.45875,-49.00387 C 637.70906,117.72024 642.16681,112.07422 655.7759,97 667.65075,83.846731 672.52496,78.143458 674.72738,74.825055 677.85187,70.117356 680,69.188643 680,72.545512 c 0,2.804956 -3.4473,7.288111 -21.87642,28.449878 -16.13756,18.53042 -18.159,20.37434 -19.66483,17.93787 z M 592.00463,95.25 c 0.003,-0.9625 1.24004,-3.100665 2.75,-4.751479 1.50995,-1.650813 6.05656,-6.938313 10.10356,-11.75 7.18443,-8.54192 8.48462,-9.620888 9.53857,-7.915571 0.43966,0.711391 -3.60205,7.674589 -5.32091,9.16705 -0.31672,0.275 -3.00498,3.425 -5.97392,7 -5.92286,7.131905 -8.85196,10 -10.21271,10 -0.48907,0 -0.88714,-0.7875 -0.88459,-1.75 z M 529.25,68.419146 c -6.18729,-2.899674 -1.04532,-3.41954 34.5,-3.488041 19.6625,-0.03789 43.4,-0.375393 52.75,-0.75 33.00827,-1.322476 63.5,-0.356615 63.5,2.011436 0,1.988708 -0.47977,2.024515 -24.25,1.809844 -13.3375,-0.120453 -46.975,0.05585 -74.75,0.391785 -27.775,0.335934 -51.0625,0.347174 -51.75,0.02498 z M 651.45888,49.933469 C 650.44196,48.28806 650.59807,48.264754 665.75,47.79993 679.01982,47.392845 680,47.487867 680,49.181388 c 0,2.139344 -27.24012,2.857143 -28.54112,0.752081 z M 119.35233,25.952664 c -1.18122,-0.44688 -2.45659,-1.312349 -2.83416,-1.923264 -0.37757,-0.610915 -1.60497,-0.81924 -2.72756,-0.462943 -1.21039,0.384164 -1.7977,0.254036 -1.44309,-0.319741 0.32889,-0.532153 -1.09489,-2.492864 -3.16394,-4.357134 -2.06906,-1.86427 -5.56114,-5.671469 -7.76017,-8.460443 C 99.224374,7.6401658 96.879503,5.5401658 96.212582,5.7624726 95.521157,5.9929477 95,5.2712691 95,4.0833333 95,1.686384 93.477351,1.324603 92.293381,3.4402412 c -0.657347,1.1746136 -1.239168,0.9901809 -3.15465,-1 C 86.683657,-0.11057349 88.32412,-1.2036601 90.925,1.25 c 1.06,1 1.416667,1 1.783333,0 1.198326,-3.26816 6.881777,-1.34867395 10.363237,3.5 1.87583,2.6125 7.15441,8.419072 11.73017,12.903494 7.96983,7.810729 9.20268,10.059154 4.55059,8.29917 z m 382.18563,-2.032725 c 2.63117,-4.313938 10.81481,-16.0199261 11.49218,-16.4385638 0.43612,-0.2695424 2.17219,1.751469 3.85793,4.4911368 1.68573,2.739667 3.97554,5.549871 5.08845,6.244897 1.11291,0.695027 2.02348,1.777954 2.02348,2.406506 0,1.725087 -3.78345,2.382784 -4.40403,0.765577 C 519.30271,20.625271 518.44969,20 517.70036,20 516.95104,20 515.73588,18.875 515,17.5 c -1.73222,-3.236676 -2.19043,-3.156768 -4.30072,0.75 -1.54972,2.868978 -3.54139,4.371335 -8.61332,6.497193 -1.01796,0.426667 -1.17146,0.194943 -0.548,-0.827254 z M 648,22.122445 c 0,-0.482656 0.62392,-1.395363 1.38649,-2.028239 0.76257,-0.632876 4.19703,-5.412976 7.63213,-10.6224448 C 662.84044,0.64274648 667,-2.7506809 667,1.3288139 667,2.6593938 656.2216,17.205591 654.77052,17.833333 654.34674,18.016667 654,18.788334 654,19.54815 654,20.9371 651.05118,23 649.06574,23 648.47958,23 648,22.6051 648,22.122445 Z M 62,17 c 0,-0.733333 0.3,-1.033333 0.666667,-0.666667 0.366666,0.366667 0.366666,0.966667 0,1.333334 C 62.3,18.033333 62,17.733333 62,17 Z m 37.5,-3 c -0.339919,-0.55 0.110081,-1 1,-1 0.88992,0 1.33992,0.45 1,1 -0.33992,0.55 -0.78992,1 -1,1 -0.21008,0 -0.660081,-0.45 -1,-1 z M 62.078947,8.4166667 c 0.04798,-1.164943 0.284941,-1.4018994 0.604167,-0.6041667 0.288871,0.721875 0.253344,1.584375 -0.07895,1.9166667 -0.332292,0.3322913 -0.568641,-0.2583334 -0.52522,-1.3125 z M 72,8.5 C 72,8.225 72.225,8 72.5,8 72.775,8 73,8.225 73,8.5 73,8.775 72.775,9 72.5,9 72.225,9 72,8.775 72,8.5 Z m 24,0 C 96,8.225 96.225,8 96.5,8 96.775,8 97,8.225 97,8.5 97,8.775 96.775,9 96.5,9 96.225,9 96,8.775 96,8.5 Z M 74.519929,7.0322464 C 74.15796,6.4465678 73.410932,6.24603 72.859867,6.5866068 72.245584,6.9662547 71.982141,5.9085803 72.178966,3.8529187 72.621591,-0.76990809 78,-0.63401069 78,4 78,6.2762738 75.434334,8.5117837 74.519929,7.0322464 Z M 90,6.940983 C 90,6.3585237 90.45,6.1600813 91,6.5 91.55,6.8399187 92,7.3164763 92,7.559017 92,7.8015576 91.55,8 91,8 90.45,8 90,7.5234424 90,6.940983 Z M 61.585078,4.3611149 C 60.215019,0.79079636 60.924907,0 65.5,0 71.607165,0 71.260137,2.4298006 64.802308,4.8850628 62.72032,5.6766333 62.047866,5.5671196 61.585078,4.3611149 Z M 267,4 c 0,-1.2529224 1.06124,-1.2529224 3,0 1.21296,0.7838742 1.06944,0.9723047 -0.75,0.9846872 C 268.0125,4.9931093 267,4.55 267,4 Z m 7.8125,0.316886 c 0.72187,-0.2888706 1.58438,-0.2533443 1.91667,0.078947 0.33229,0.3322917 -0.25834,0.5686404 -1.3125,0.5252193 -1.16495,-0.047984 -1.4019,-0.2849403 -0.60417,-0.6041663 z M 514.58251,3 c 0.74187,-2.78501663 1.21478,-3.53604038 1.83566,-2.91515999 0.23,0.22999534 -0.23877,1.54249539 -1.04171,2.91666669 L 513.91657,5.5 Z M 265.5,1 C 265.16008,0.45 265.35852,0 265.94098,0 266.52344,0 267,0.45 267,1 c 0,0.55 -0.19844,1 -0.44098,1 -0.24254,0 -0.7191,-0.45 -1.05902,-1 z m 12.80059,0.3660816 C 279.33861,0.32805444 284,0.10066543 284,1.0880562 284,1.5896253 282.575,2 280.83333,2 c -1.74166,0 -2.8814,-0.2852633 -2.53274,-0.6339184 z"
       id="path1" />
  </g>
</svg>
