<?xml version="1.0" encoding="UTF-8" standalone="no"?>
<!-- Created with Inkscape (http://www.inkscape.org/) -->

<svg
   width="134.68921mm"
   height="129.92619mm"
   viewBox="0 0 134.68921 129.92619"
   version="1.1"
   id="svg1"
   inkscape:version="1.3 (0e150ed6c4, 2023-07-21)"
   sodipodi:docname="color-icon.svg"
   xmlns:inkscape="http://www.inkscape.org/namespaces/inkscape"
   xmlns:sodipodi="http://sodipodi.sourceforge.net/DTD/sodipodi-0.dtd"
   xmlns="http://www.w3.org/2000/svg"
   xmlns:svg="http://www.w3.org/2000/svg">
  <sodipodi:namedview
     id="namedview1"
     pagecolor="#ffffff"
     bordercolor="#000000"
     borderopacity="0.25"
     inkscape:showpageshadow="2"
     inkscape:pageopacity="0.0"
     inkscape:pagecheckerboard="0"
     inkscape:deskcolor="#d1d1d1"
     inkscape:document-units="mm"
     inkscape:zoom="1.0324986"
     inkscape:cx="186.92519"
     inkscape:cy="286.19894"
     inkscape:window-width="2560"
     inkscape:window-height="1373"
     inkscape:window-x="-9"
     inkscape:window-y="-9"
     inkscape:window-maximized="1"
     inkscape:current-layer="g6" />
  <defs
     id="defs1" />
  <g
     inkscape:label="border union"
     inkscape:groupmode="layer"
     id="layer1"
     style="display:inline"
     transform="translate(-34.584364,-63.368057)">
    <g
       inkscape:label="Layer 1 copy"
       inkscape:groupmode="layer"
       id="g8"
       style="display:none">
      <circle
         style="fill:none;stroke:#000000;stroke-width:5;stroke-linecap:round;stroke-linejoin:round;stroke-dasharray:none;stroke-opacity:1;paint-order:normal"
         id="circle6"
         cx="101.6642"
         cy="110.86887"
         r="41.000866" />
      <circle
         style="fill:none;fill-opacity:1;stroke:#000000;stroke-width:5;stroke-linecap:round;stroke-linejoin:round;stroke-dasharray:none;stroke-opacity:1;paint-order:normal"
         id="circle7"
         cx="121.77256"
         cy="145.79362"
         r="41.000866" />
      <circle
         style="fill:none;stroke:#000000;stroke-width:5;stroke-linecap:round;stroke-linejoin:round;stroke-dasharray:none;stroke-opacity:1;paint-order:normal"
         id="circle8"
         cx="82.085052"
         cy="145.79362"
         r="41.000866" />
    </g>
    <path
       id="path1"
       style="fill:none;stroke:#000000;stroke-width:13;stroke-linecap:round;stroke-linejoin:round;stroke-dasharray:none;stroke-opacity:1;paint-order:normal"
       d="m 101.66408,69.868087 a 41.000866,41.000866 0 0 0 -41.000599,41.000593 41.000866,41.000866 0 0 0 0.0016,0.0253 41.000866,41.000866 0 0 0 -19.580717,34.89967 41.000866,41.000866 0 0 0 41.000598,41.0006 41.000866,41.000866 0 0 0 19.843748,-5.23999 41.000866,41.000866 0 0 0 19.84375,5.23999 41.000866,41.000866 0 0 0 41.00112,-41.0006 41.000866,41.000866 0 0 0 -20.11712,-35.27795 41.000866,41.000866 0 0 0 -40.99233,-40.647643 z" />
  </g>
  <g
     inkscape:label="fractured"
     inkscape:groupmode="layer"
     id="g5"
     style="display:inline"
     transform="translate(-34.584364,-63.368057)">
    <path
       d="m 101.66408,69.868087 a 41.000866,41.000866 0 0 0 -7.119463,0.622701 41.000866,41.000866 0 0 0 -6.903455,1.850016 41.000866,41.000866 0 0 0 -6.477641,3.020488 41.000866,41.000866 0 0 0 -5.854423,4.098974 41.000866,41.000866 0 0 0 -5.053438,5.053955 41.000866,41.000866 0 0 0 -4.099491,5.854423 41.000866,41.000866 0 0 0 -3.019971,6.477124 41.000866,41.000866 0 0 0 -1.850016,6.903452 41.000866,41.000866 0 0 0 -0.622701,7.11946 41.000866,41.000866 0 0 0 0.0052,0.0589 41.000866,41.000866 0 0 1 0.916223,-0.64183 41.000866,41.000866 0 0 1 6.477124,-3.02048 41.000866,41.000866 0 0 1 6.903455,-1.8495 41.000866,41.000866 0 0 1 7.119462,-0.62322 41.000866,41.000866 0 0 1 2.475818,0.0749 41.000866,41.000866 0 0 1 2.466516,0.22428 41.000866,41.000866 0 0 1 2.448429,0.37258 41.000866,41.000866 0 0 1 2.421558,0.51987 41.000866,41.000866 0 0 1 2.385901,0.66507 41.000866,41.000866 0 0 1 2.340942,0.80771 41.000866,41.000866 0 0 1 2.288233,0.94774 41.000866,41.000866 0 0 1 2.226738,1.08417 41.000866,41.000866 0 0 1 0.83354,0.47026 41.000866,41.000866 0 0 1 5.77691,-2.69389 41.000866,41.000866 0 0 1 6.90345,-1.8495 41.000866,41.000866 0 0 1 7.11946,-0.62322 41.000866,41.000866 0 0 1 2.47582,0.0749 41.000866,41.000866 0 0 1 2.46652,0.22428 41.000866,41.000866 0 0 1 2.44843,0.37258 41.000866,41.000866 0 0 1 2.42155,0.51987 41.000866,41.000866 0 0 1 2.3859,0.66507 41.000866,41.000866 0 0 1 2.34095,0.80771 41.000866,41.000866 0 0 1 2.28823,0.94774 41.000866,41.000866 0 0 1 2.22674,1.08417 41.000866,41.000866 0 0 1 1.82831,1.03095 41.000866,41.000866 0 0 0 -0.0646,-2.12649 41.000866,41.000866 0 0 0 -0.22427,-2.46651 41.000866,41.000866 0 0 0 -0.37259,-2.44843 41.000866,41.000866 0 0 0 -0.51986,-2.42156 41.000866,41.000866 0 0 0 -0.66508,-2.3859 41.000866,41.000866 0 0 0 -0.8077,-2.341459 41.000866,41.000866 0 0 0 -0.94775,-2.287716 41.000866,41.000866 0 0 0 -1.08417,-2.226737 41.000866,41.000866 0 0 0 -1.21698,-2.157492 41.000866,41.000866 0 0 0 -1.34462,-2.079976 41.000866,41.000866 0 0 0 -1.46761,-1.99471 41.000866,41.000866 0 0 0 -1.58595,-1.902726 41.000866,41.000866 0 0 0 -1.69757,-1.803508 41.000866,41.000866 0 0 0 -1.80351,-1.697571 41.000866,41.000866 0 0 0 -1.90221,-1.585433 41.000866,41.000866 0 0 0 -1.99523,-1.46761 41.000866,41.000866 0 0 0 -2.07946,-1.345138 41.000866,41.000866 0 0 0 -2.15749,-1.216463 41.000866,41.000866 0 0 0 -2.22673,-1.084172 41.000866,41.000866 0 0 0 -2.28824,-0.947745 41.000866,41.000866 0 0 0 -2.34094,-0.80822 41.000866,41.000866 0 0 0 -2.3859,-0.665075 41.000866,41.000866 0 0 0 -2.42156,-0.519865 41.000866,41.000866 0 0 0 -2.44843,-0.372587 41.000866,41.000866 0 0 0 -2.46651,-0.223759 41.000866,41.000866 0 0 0 -2.47582,-0.07493 z"
       style="fill:#ff0000;fill-opacity:1;stroke:none;stroke-width:2.33003;stroke-linecap:round;stroke-linejoin:round;stroke-dasharray:none"
       id="path7" />
    <path
       d="m 142.65486,110.51987 a 41.000866,41.000866 0 0 0 -1.82831,-1.03095 41.000866,41.000866 0 0 0 -2.22674,-1.08417 41.000866,41.000866 0 0 0 -2.28823,-0.94774 41.000866,41.000866 0 0 0 -2.34095,-0.80771 41.000866,41.000866 0 0 0 -2.3859,-0.66507 41.000866,41.000866 0 0 0 -2.42155,-0.51987 41.000866,41.000866 0 0 0 -2.44843,-0.37258 41.000866,41.000866 0 0 0 -2.46652,-0.22428 41.000866,41.000866 0 0 0 -2.47582,-0.0749 41.000866,41.000866 0 0 0 -7.11946,0.62322 41.000866,41.000866 0 0 0 -6.90345,1.8495 41.000866,41.000866 0 0 0 -5.77691,2.69389 41.000866,41.000866 0 0 1 1.32395,0.74672 41.000866,41.000866 0 0 1 2.07946,1.34462 41.000866,41.000866 0 0 1 1.99522,1.46813 41.000866,41.000866 0 0 1 1.90221,1.58544 41.000866,41.000866 0 0 1 1.80351,1.69757 41.000866,41.000866 0 0 1 1.69757,1.8035 41.000866,41.000866 0 0 1 1.58595,1.90221 41.000866,41.000866 0 0 1 1.46761,1.99523 41.000866,41.000866 0 0 1 1.34462,2.07998 41.000866,41.000866 0 0 1 1.21698,2.15697 41.000866,41.000866 0 0 1 1.08417,2.22674 41.000866,41.000866 0 0 1 0.94775,2.28823 41.000866,41.000866 0 0 1 0.8077,2.34146 41.000866,41.000866 0 0 1 0.66508,2.38538 41.000866,41.000866 0 0 1 0.51986,2.42156 41.000866,41.000866 0 0 1 0.37259,2.44843 41.000866,41.000866 0 0 1 0.22428,2.46652 41.000866,41.000866 0 0 1 0.0729,2.41484 41.000866,41.000866 0 0 0 4.9351,-3.45561 41.000866,41.000866 0 0 0 5.05344,-5.05343 41.000866,41.000866 0 0 0 4.09949,-5.85443 41.000866,41.000866 0 0 0 3.02049,-6.47712 41.000866,41.000866 0 0 0 1.8495,-6.90346 41.000866,41.000866 0 0 0 0.62321,-7.11998 41.000866,41.000866 0 0 0 -0.0103,-0.34881 z"
       style="fill:#ff00ff;fill-opacity:1;stroke:none;stroke-width:2.33003;stroke-linecap:round;stroke-linejoin:round;stroke-dasharray:none"
       id="path9" />
    <path
       d="m 142.65486,110.51987 a 41.000866,41.000866 0 0 1 0.0103,0.34881 41.000866,41.000866 0 0 1 -0.62321,7.11998 41.000866,41.000866 0 0 1 -1.8495,6.90346 41.000866,41.000866 0 0 1 -3.02049,6.47712 41.000866,41.000866 0 0 1 -4.09949,5.85443 41.000866,41.000866 0 0 1 -5.05344,5.05343 41.000866,41.000866 0 0 1 -4.9351,3.45561 41.000866,41.000866 0 0 1 0.002,0.061 41.000866,41.000866 0 0 1 -0.62322,7.11947 41.000866,41.000866 0 0 1 -1.8495,6.90345 41.000866,41.000866 0 0 1 -3.02049,6.47764 41.000866,41.000866 0 0 1 -4.09949,5.85443 41.000866,41.000866 0 0 1 -5.05344,5.05343 41.000866,41.000866 0 0 1 -5.85442,4.0995 41.000866,41.000866 0 0 1 -0.65681,0.30592 41.000866,41.000866 0 0 0 5.82084,2.71456 41.000866,41.000866 0 0 0 6.90345,1.8495 41.000866,41.000866 0 0 0 7.11946,0.6227 41.000866,41.000866 0 0 0 7.11998,-0.6227 41.000866,41.000866 0 0 0 6.90346,-1.8495 41.000866,41.000866 0 0 0 6.47712,-3.02048 41.000866,41.000866 0 0 0 5.85442,-4.0995 41.000866,41.000866 0 0 0 5.05344,-5.05343 41.000866,41.000866 0 0 0 4.09949,-5.85443 41.000866,41.000866 0 0 0 3.02049,-6.47764 41.000866,41.000866 0 0 0 1.8495,-6.90345 41.000866,41.000866 0 0 0 0.62322,-7.11947 41.000866,41.000866 0 0 0 -0.0749,-2.47581 41.000866,41.000866 0 0 0 -0.22428,-2.46652 41.000866,41.000866 0 0 0 -0.37259,-2.44843 41.000866,41.000866 0 0 0 -0.51986,-2.42156 41.000866,41.000866 0 0 0 -0.66508,-2.38538 41.000866,41.000866 0 0 0 -0.8077,-2.34146 41.000866,41.000866 0 0 0 -0.94775,-2.28823 41.000866,41.000866 0 0 0 -1.08417,-2.22674 41.000866,41.000866 0 0 0 -1.21698,-2.15697 41.000866,41.000866 0 0 0 -1.34462,-2.07998 41.000866,41.000866 0 0 0 -1.46761,-1.99523 41.000866,41.000866 0 0 0 -1.58595,-1.90221 41.000866,41.000866 0 0 0 -1.69757,-1.8035 41.000866,41.000866 0 0 0 -1.80351,-1.69757 41.000866,41.000866 0 0 0 -1.90221,-1.58544 41.000866,41.000866 0 0 0 -1.99522,-1.46813 41.000866,41.000866 0 0 0 -2.07946,-1.34462 41.000866,41.000866 0 0 0 -0.32918,-0.18603 z"
       style="fill:#0000ff;fill-opacity:1;stroke:none;stroke-width:2.33003;stroke-linecap:round;stroke-linejoin:round;stroke-dasharray:none"
       id="path8" />
    <path
       d="m 80.800753,146.12235 a 41.000866,41.000866 0 0 1 -0.02894,-0.32867 41.000866,41.000866 0 0 1 0.622701,-7.11997 41.000866,41.000866 0 0 1 1.850016,-6.90346 41.000866,41.000866 0 0 1 3.020488,-6.47712 41.000866,41.000866 0 0 1 4.098974,-5.85443 41.000866,41.000866 0 0 1 5.053955,-5.05343 41.000866,41.000866 0 0 1 5.854423,-4.0995 41.000866,41.000866 0 0 1 0.70022,-0.32659 41.000866,41.000866 0 0 0 -0.83354,-0.47026 41.000866,41.000866 0 0 0 -2.226742,-1.08417 41.000866,41.000866 0 0 0 -2.288233,-0.94774 41.000866,41.000866 0 0 0 -2.340942,-0.80771 41.000866,41.000866 0 0 0 -2.385901,-0.66507 41.000866,41.000866 0 0 0 -2.421558,-0.51987 41.000866,41.000866 0 0 0 -2.448429,-0.37258 41.000866,41.000866 0 0 0 -2.466516,-0.22428 41.000866,41.000866 0 0 0 -2.475818,-0.0749 41.000866,41.000866 0 0 0 -7.119462,0.62322 41.000866,41.000866 0 0 0 -6.903455,1.8495 41.000866,41.000866 0 0 0 -6.477124,3.02048 41.000866,41.000866 0 0 0 -0.916223,0.64183 41.000866,41.000866 0 0 0 0.617534,7.06106 41.000866,41.000866 0 0 0 1.850016,6.90346 41.000866,41.000866 0 0 0 3.019971,6.47712 41.000866,41.000866 0 0 0 4.099491,5.85443 41.000866,41.000866 0 0 0 5.053438,5.05343 41.000866,41.000866 0 0 0 5.491655,3.84525 z"
       style="fill:#ffff00;fill-opacity:1;stroke:none;stroke-width:2.33003;stroke-linecap:round;stroke-linejoin:round;stroke-dasharray:none"
       id="path13" />
    <path
       d="m 80.800753,146.12235 a 41.000866,41.000866 0 0 1 -5.491655,-3.84525 41.000866,41.000866 0 0 1 -5.053438,-5.05343 41.000866,41.000866 0 0 1 -4.099491,-5.85443 41.000866,41.000866 0 0 1 -3.019971,-6.47712 41.000866,41.000866 0 0 1 -1.850016,-6.90346 41.000866,41.000866 0 0 1 -0.617534,-7.06106 41.000866,41.000866 0 0 0 -4.9382,3.45767 41.000866,41.000866 0 0 0 -5.053955,5.05343 41.000866,41.000866 0 0 0 -4.098974,5.85443 41.000866,41.000866 0 0 0 -3.020488,6.47712 41.000866,41.000866 0 0 0 -1.850016,6.90346 41.000866,41.000866 0 0 0 -0.622701,7.11997 41.000866,41.000866 0 0 0 0.622701,7.11947 41.000866,41.000866 0 0 0 1.850016,6.90345 41.000866,41.000866 0 0 0 3.020488,6.47764 41.000866,41.000866 0 0 0 4.098974,5.85443 41.000866,41.000866 0 0 0 5.053955,5.05343 41.000866,41.000866 0 0 0 5.854423,4.0995 41.000866,41.000866 0 0 0 6.477124,3.02048 41.000866,41.000866 0 0 0 6.903455,1.8495 41.000866,41.000866 0 0 0 7.119462,0.6227 41.000866,41.000866 0 0 0 7.119979,-0.6227 41.000866,41.000866 0 0 0 6.903455,-1.8495 41.000866,41.000866 0 0 0 5.820314,-2.71456 41.000866,41.000866 0 0 1 -0.65629,-0.30592 41.000866,41.000866 0 0 1 -5.854422,-4.0995 41.000866,41.000866 0 0 1 -5.053955,-5.05343 41.000866,41.000866 0 0 1 -4.098974,-5.85443 41.000866,41.000866 0 0 1 -3.020488,-6.47764 41.000866,41.000866 0 0 1 -1.850016,-6.90345 41.000866,41.000866 0 0 1 -0.593762,-6.7908 z"
       style="fill:#00ff00;fill-opacity:1;stroke:none;stroke-width:2.33003;stroke-linecap:round;stroke-linejoin:round;stroke-dasharray:none"
       id="path12" />
    <path
       d="m 123.08396,145.73271 a 41.000866,41.000866 0 0 0 -0.0729,-2.41484 41.000866,41.000866 0 0 0 -0.22428,-2.46652 41.000866,41.000866 0 0 0 -0.37259,-2.44843 41.000866,41.000866 0 0 0 -0.51986,-2.42156 41.000866,41.000866 0 0 0 -0.66508,-2.38538 41.000866,41.000866 0 0 0 -0.8077,-2.34146 41.000866,41.000866 0 0 0 -0.94775,-2.28823 41.000866,41.000866 0 0 0 -1.08417,-2.22674 41.000866,41.000866 0 0 0 -1.21698,-2.15697 41.000866,41.000866 0 0 0 -1.34462,-2.07998 41.000866,41.000866 0 0 0 -1.46761,-1.99523 41.000866,41.000866 0 0 0 -1.58595,-1.90221 41.000866,41.000866 0 0 0 -1.69757,-1.8035 41.000866,41.000866 0 0 0 -1.80351,-1.69757 41.000866,41.000866 0 0 0 -1.90221,-1.58544 41.000866,41.000866 0 0 0 -1.99522,-1.46813 41.000866,41.000866 0 0 0 -2.07946,-1.34462 41.000866,41.000866 0 0 0 -1.32395,-0.74672 41.000866,41.000866 0 0 0 -0.70022,0.32659 41.000866,41.000866 0 0 0 -5.854422,4.0995 41.000866,41.000866 0 0 0 -5.053955,5.05343 41.000866,41.000866 0 0 0 -4.098974,5.85443 41.000866,41.000866 0 0 0 -3.020488,6.47712 41.000866,41.000866 0 0 0 -1.850016,6.90346 41.000866,41.000866 0 0 0 -0.622701,7.11997 41.000866,41.000866 0 0 0 0.02894,0.32867 41.000866,41.000866 0 0 0 0.362768,0.25425 41.000866,41.000866 0 0 0 6.477641,3.02048 41.000866,41.000866 0 0 0 6.903455,1.85002 41.000866,41.000866 0 0 0 7.119462,0.6227 41.000866,41.000866 0 0 0 7.11998,-0.6227 41.000866,41.000866 0 0 0 6.90345,-1.85002 41.000866,41.000866 0 0 0 6.47713,-3.02048 41.000866,41.000866 0 0 0 0.91932,-0.64389 z"
       style="fill:#ffffff;fill-opacity:1;stroke:none;stroke-width:2.33003;stroke-linecap:round;stroke-linejoin:round;stroke-dasharray:none"
       id="path11" />
    <path
       d="m 123.08396,145.73271 a 41.000866,41.000866 0 0 1 -0.91932,0.64389 41.000866,41.000866 0 0 1 -6.47713,3.02048 41.000866,41.000866 0 0 1 -6.90345,1.85002 41.000866,41.000866 0 0 1 -7.11998,0.6227 41.000866,41.000866 0 0 1 -7.119463,-0.6227 41.000866,41.000866 0 0 1 -6.903455,-1.85002 41.000866,41.000866 0 0 1 -6.477641,-3.02048 41.000866,41.000866 0 0 1 -0.362768,-0.25425 41.000866,41.000866 0 0 0 0.593762,6.7908 41.000866,41.000866 0 0 0 1.850016,6.90345 41.000866,41.000866 0 0 0 3.020488,6.47764 41.000866,41.000866 0 0 0 4.098974,5.85443 41.000866,41.000866 0 0 0 5.053955,5.05343 41.000866,41.000866 0 0 0 5.854422,4.0995 41.000866,41.000866 0 0 0 0.65629,0.30592 41.000866,41.000866 0 0 0 0.65681,-0.30592 41.000866,41.000866 0 0 0 5.85442,-4.0995 41.000866,41.000866 0 0 0 5.05344,-5.05343 41.000866,41.000866 0 0 0 4.09949,-5.85443 41.000866,41.000866 0 0 0 3.02049,-6.47764 41.000866,41.000866 0 0 0 1.8495,-6.90345 41.000866,41.000866 0 0 0 0.62322,-7.11947 41.000866,41.000866 0 0 0 -0.002,-0.061 z"
       style="fill:#00ffff;fill-opacity:1;stroke:none;stroke-width:2.33003;stroke-linecap:round;stroke-linejoin:round;stroke-dasharray:none"
       id="path10" />
  </g>
  <g
     inkscape:label="center exclusion"
     inkscape:groupmode="layer"
     id="g6"
     style="display:inline"
     transform="translate(-34.584364,-63.368057)">
    <path
       id="circle3"
       style="fill:none;stroke:#000000;stroke-width:8;stroke-linecap:round;stroke-linejoin:round;stroke-dasharray:none;stroke-opacity:1;paint-order:normal"
       d="m 102.02478,109.98088 a 41.000866,41.000866 0 0 0 -21.252966,35.8128 41.000866,41.000866 0 0 0 0.01964,0.27389 41.000866,41.000866 0 0 0 20.872626,5.80223 41.000866,41.000866 0 0 0 21.42143,-6.10144 41.000866,41.000866 0 0 0 -21.06073,-35.78748 z" />
  </g>
</svg>
