<?xml version="1.0" encoding="UTF-8" standalone="no"?>
<!-- Created with Inkscape (http://www.inkscape.org/) -->

<svg
   width="95.389717mm"
   height="235.14133mm"
   viewBox="0 0 95.389717 235.14133"
   version="1.1"
   id="svg1"
   inkscape:version="1.3 (0e150ed6c4, 2023-07-21)"
   sodipodi:docname="dice-color-icon.svg"
   inkscape:export-filename="dice-color-icon.png"
   inkscape:export-xdpi="96"
   inkscape:export-ydpi="96"
   xmlns:inkscape="http://www.inkscape.org/namespaces/inkscape"
   xmlns:sodipodi="http://sodipodi.sourceforge.net/DTD/sodipodi-0.dtd"
   xmlns="http://www.w3.org/2000/svg"
   xmlns:svg="http://www.w3.org/2000/svg">
  <sodipodi:namedview
     id="namedview1"
     pagecolor="#ffffff"
     bordercolor="#000000"
     borderopacity="0.25"
     inkscape:showpageshadow="2"
     inkscape:pageopacity="0.0"
     inkscape:pagecheckerboard="0"
     inkscape:deskcolor="#d1d1d1"
     inkscape:document-units="mm"
     showgrid="true"
     inkscape:zoom="1.0324986"
     inkscape:cx="103.6321"
     inkscape:cy="454.72217"
     inkscape:window-width="2560"
     inkscape:window-height="1373"
     inkscape:window-x="-9"
     inkscape:window-y="-9"
     inkscape:window-maximized="1"
     inkscape:current-layer="layer1">
    <inkscape:grid
       id="grid30"
       units="mm"
       originx="-207.59373"
       originy="-95.962492"
       spacingx="0.99999998"
       spacingy="1"
       empcolor="#0099e5"
       empopacity="0.30196078"
       color="#0099e5"
       opacity="0.14901961"
       empspacing="5"
       dotted="false"
       gridanglex="30"
       gridanglez="30"
       visible="true" />
  </sodipodi:namedview>
  <defs
     id="defs1" />
  <g
     inkscape:label="Layer 1"
     inkscape:groupmode="layer"
     id="layer1"
     transform="translate(-54.925842,-25.390076)">
    <path
       d="m 85.926038,99.891933 v 0.0382 l 8.05739,-0.0382 z m 61.539032,0 -14.59859,13.116507 15.0735,-13.055527 v -0.061 z m -28.62931,47.988287 v 14.0255 h 0.13953 z"
       style="fill:#ffffff;stroke:#000000;stroke-width:3.79206;stroke-linecap:round;stroke-linejoin:round"
       id="path23" />
    <path
       d="m 56.821872,125.29193 v 62.01379 h 62.013888 v -39.4255 l -0.22014,-22.12372 -59.849164,-0.46457 z m 14.314371,9.57409 c 2.972001,-1.2e-4 5.381421,2.40907 5.381584,5.38107 1.22e-4,2.9722 -2.409381,5.38171 -5.381584,5.38158 -2.972,-1.6e-4 -5.381188,-2.40958 -5.381066,-5.38158 1.63e-4,-2.9718 2.409268,-5.3809 5.381066,-5.38107 z m 33.867207,0.52917 c 2.97182,1.6e-4 5.38094,2.40927 5.3811,5.38107 1.2e-4,2.97199 -2.40908,5.38142 -5.3811,5.38158 -2.97221,1.2e-4 -5.381727,-2.40938 -5.381607,-5.38158 1.6e-4,-2.972 2.409597,-5.38119 5.381607,-5.38107 z m -17.46304,15.87448 c 2.97219,-1.2e-4 5.381706,2.4094 5.381584,5.38159 -1.64e-4,2.97199 -2.409595,5.38119 -5.381584,5.38106 -2.971787,-1.6e-4 -5.380903,-2.40928 -5.381067,-5.38106 -1.22e-4,-2.97199 2.409079,-5.38142 5.381067,-5.38159 z m -16.933333,16.93334 c 2.971991,-1.3e-4 5.38142,2.40907 5.381583,5.38106 1.22e-4,2.9722 -2.40939,5.38171 -5.381583,5.38159 -2.971992,-1.7e-4 -5.381189,-2.4096 -5.381067,-5.38159 1.63e-4,-2.97179 2.409277,-5.3809 5.381067,-5.38106 z m 34.396373,0 c 2.97181,1.6e-4 5.38094,2.40927 5.3811,5.38106 1.2e-4,2.972 -2.40908,5.38142 -5.3811,5.38159 -2.97221,1.2e-4 -5.381727,-2.40939 -5.381607,-5.38159 1.6e-4,-2.97199 2.409597,-5.38119 5.381607,-5.38106 z"
       style="fill:#00ff00;stroke:#000000;stroke-width:3.79206;stroke-linecap:round;stroke-linejoin:round;fill-opacity:1"
       id="path22" />
    <path
       d="m 147.75032,99.635623 -62.11367,0.2961 -28.667501,25.346257 61.646471,0.47852 -0.004,-0.40152 14.25499,-12.34654 z m -44.36538,8.819607 c 3.1595,-7e-5 5.7208,1.52861 5.72061,3.41426 1.9e-4,1.88566 -2.56111,3.41434 -5.72061,3.41427 -3.1595,7e-5 -5.720795,-1.52861 -5.720605,-3.41427 -1.9e-4,-1.88565 2.561105,-3.41433 5.720605,-3.41426 z"
       style="fill:#0003ff;stroke:#000000;stroke-width:3.79206;stroke-linecap:round;stroke-linejoin:round;fill-opacity:1"
       id="path21" />
    <path
       d="m 147.95703,99.937923 -29.34554,25.417057 0.61133,61.42415 29.19671,-24.85636 z m -7.05435,17.133317 c 0.31585,0.005 0.61277,0.0708 0.88315,0.19689 1.70917,0.79661 2.01227,3.76401 0.67696,6.6275 -1.33521,2.86328 -3.80298,4.53839 -5.51181,3.74138 -1.70916,-0.79661 -2.01227,-3.76401 -0.67696,-6.62751 1.09423,-2.34653 2.99274,-3.96186 4.62866,-3.93826 z m -5.29167,20.6375 c 0.31586,0.005 0.61277,0.0708 0.88315,0.19689 1.70887,0.79694 2.01173,3.76424 0.67645,6.6275 -1.33511,2.86289 -3.8025,4.53789 -5.51129,3.74138 -1.70891,-0.79671 -2.01199,-3.76373 -0.67696,-6.62699 1.09412,-2.34666 2.99264,-3.96222 4.62865,-3.93878 z m -5.29166,21.69635 c 0.31583,0.004 0.61274,0.0704 0.88315,0.19637 1.70886,0.79695 2.01172,3.76425 0.67644,6.62751 -1.33521,2.86327 -3.80298,4.53838 -5.51181,3.74137 -1.70861,-0.79704 -2.01146,-3.76396 -0.67645,-6.62699 1.09424,-2.34653 2.99274,-3.96186 4.62867,-3.93826 z"
       style="fill:#ff0000;stroke:#000000;stroke-width:3.79206;stroke-linecap:round;stroke-linejoin:round;fill-opacity:1"
       id="path20" />
    <path
       d="m 103.38494,108.45523 c -3.1595,-7e-5 -5.720795,1.5286 -5.720605,3.41426 -1.9e-4,1.88567 2.561105,3.41434 5.720605,3.41427 3.1595,7e-5 5.7208,-1.5286 5.72061,-3.41427 1.9e-4,-1.88566 -2.56111,-3.41433 -5.72061,-3.41426 z"
       style="stroke:#000000;stroke-width:3.11408;stroke-linecap:round;stroke-linejoin:round"
       id="path19" />
    <path
       d="m 71.136243,134.86602 c -2.97181,1.7e-4 -5.380903,2.40926 -5.381066,5.38107 -1.22e-4,2.97201 2.409054,5.38142 5.381066,5.38158 2.972215,1.3e-4 5.381706,-2.40937 5.381584,-5.38158 -1.63e-4,-2.97201 -2.409571,-5.38119 -5.381584,-5.38107 z"
       style="stroke:#000000;stroke-width:3.79206;stroke-linecap:round;stroke-linejoin:round"
       id="path18" />
    <path
       d="m 105.00345,135.39519 c -2.97203,-1.2e-4 -5.381447,2.40905 -5.381607,5.38107 -1.2e-4,2.97221 2.409377,5.3817 5.381607,5.38158 2.97203,-1.6e-4 5.38122,-2.40957 5.3811,-5.38158 -1.6e-4,-2.97181 -2.40927,-5.38091 -5.3811,-5.38107 z"
       style="stroke:#000000;stroke-width:3.79206;stroke-linecap:round;stroke-linejoin:round"
       id="path17" />
    <path
       d="m 105.00345,168.20301 c -2.97203,-1.3e-4 -5.381447,2.40905 -5.381607,5.38106 -1.2e-4,2.97222 2.409377,5.38171 5.381607,5.38159 2.97203,-1.7e-4 5.38122,-2.40957 5.3811,-5.38159 -1.6e-4,-2.97181 -2.40927,-5.3809 -5.3811,-5.38106 z"
       style="stroke:#000000;stroke-width:3.79206;stroke-linecap:round;stroke-linejoin:round"
       id="path16" />
    <path
       d="m 70.607077,168.20301 c -2.971811,1.6e-4 -5.380904,2.40925 -5.381067,5.38106 -1.22e-4,2.97202 2.409054,5.38142 5.381067,5.38159 2.972214,1.2e-4 5.381705,-2.40937 5.381583,-5.38159 -1.63e-4,-2.97201 -2.409571,-5.38119 -5.381583,-5.38106 z"
       style="stroke:#000000;stroke-width:3.79206;stroke-linecap:round;stroke-linejoin:round"
       id="path15" />
    <path
       d="m 87.54041,151.26967 c -2.972012,1.7e-4 -5.381189,2.40957 -5.381067,5.38159 1.64e-4,2.97181 2.409257,5.3809 5.381067,5.38106 2.972012,1.3e-4 5.38142,-2.40905 5.381584,-5.38106 1.22e-4,-2.97222 -2.40937,-5.38171 -5.381584,-5.38159 z"
       style="stroke:#000000;stroke-width:3.79206;stroke-linecap:round;stroke-linejoin:round"
       id="path14" />
    <path
       d="m 140.90268,117.07124 c -1.63594,-0.0236 -3.53442,1.59171 -4.62866,3.93826 -1.33531,2.86352 -1.03221,5.8309 0.67696,6.62751 1.70884,0.79701 4.17659,-0.87808 5.51181,-3.74138 1.33532,-2.86351 1.03222,-5.83089 -0.67696,-6.6275 -0.27038,-0.12612 -0.5673,-0.19232 -0.88315,-0.19689 z"
       style="stroke:#000000;stroke-width:3.11408;stroke-linecap:round;stroke-linejoin:round"
       id="path13" />
    <path
       d="m 130.31935,159.40509 c -1.63594,-0.0236 -3.53442,1.59171 -4.62867,3.93826 -1.33502,2.86306 -1.03218,5.82994 0.67645,6.62699 1.70884,0.79701 4.17659,-0.87807 5.51181,-3.74137 1.33529,-2.86329 1.03243,-5.83056 -0.67644,-6.62751 -0.27041,-0.12593 -0.56732,-0.19195 -0.88315,-0.19637 z"
       style="stroke:#000000;stroke-width:3.11408;stroke-linecap:round;stroke-linejoin:round"
       id="path12" />
    <path
       d="m 135.61101,137.70874 a 3.4140549,5.7203536 25 0 0 -4.62865,3.93878 3.4140549,5.7203536 25 0 0 0.67696,6.62699 3.4140549,5.7203536 25 0 0 5.51129,-3.74138 3.4140549,5.7203536 25 0 0 -0.67645,-6.6275 3.4140549,5.7203536 25 0 0 -0.88315,-0.19689 z"
       style="stroke:#000000;stroke-width:3.11408;stroke-linecap:round;stroke-linejoin:round"
       id="path11" />
    <path
       id="path24"
       style="stroke:#000000;stroke-width:1.36702;stroke-linecap:round;stroke-linejoin:round"
       d="m 88.513722,75.864669 c 3.786983,3.786985 4.891121,8.82276 2.466161,11.24772 -2.424961,2.424961 -7.460736,1.320823 -11.24772,-2.46616 C 75.945179,80.859245 53.770269,54.752696 56.195229,52.327736 58.62019,49.902775 84.726737,72.077685 88.513722,75.864669 Z"
       sodipodi:nodetypes="sssss" />
    <path
       id="path29"
       style="stroke:#000000;stroke-width:1.36702;stroke-linecap:round;stroke-linejoin:round"
       d="m 125.12235,84.646253 c -3.78698,3.786984 -8.82277,4.891113 -11.24774,2.46614 -2.42498,-2.42498 -1.32085,-7.460764 2.46613,-11.247748 3.78699,-3.786984 29.89355,-25.961886 32.31853,-23.536906 2.42497,2.424973 -19.74993,28.53153 -23.53692,32.318514 z"
       sodipodi:nodetypes="sssss" />
    <path
       id="path30"
       style="stroke:#000000;stroke-width:1.36702;stroke-linecap:round;stroke-linejoin:round"
       d="m 108.90129,65.569337 c 0,5.355604 -2.7801,9.697178 -6.20953,9.697178 -3.429434,0 -6.209519,-4.341574 -6.209519,-9.697178 0,-5.355604 2.780085,-39.495751 6.209519,-39.495751 3.42943,0 6.20953,34.140146 6.20953,39.495751 z"
       sodipodi:nodetypes="sssss" />
    <path
       id="path31"
       style="stroke:#000000;stroke-width:1.36702;stroke-linecap:round;stroke-linejoin:round"
       d="m 88.513722,75.864669 c 3.786983,3.786985 4.891121,8.82276 2.466161,11.24772 -2.424961,2.424961 -7.460736,1.320823 -11.24772,-2.46616 C 75.945179,80.859245 53.770269,54.752696 56.195229,52.327736 58.62019,49.902775 84.726737,72.077685 88.513722,75.864669 Z"
       sodipodi:nodetypes="sssss" />
    <path
       id="path32"
       style="stroke:#000000;stroke-width:1.36702;stroke-linecap:round;stroke-linejoin:round"
       d="m 125.12235,84.646253 c -3.78698,3.786984 -8.82277,4.891113 -11.24774,2.46614 -2.42498,-2.42498 -1.32085,-7.460764 2.46613,-11.247748 3.78699,-3.786984 29.89355,-25.961886 32.31853,-23.536906 2.42497,2.424973 -19.74993,28.53153 -23.53692,32.318514 z"
       sodipodi:nodetypes="sssss" />
    <path
       id="path33"
       style="stroke:#000000;stroke-width:1.36702;stroke-linecap:round;stroke-linejoin:round"
       d="m 108.90129,65.569337 c 0,5.355604 -2.7801,9.697178 -6.20953,9.697178 -3.429434,0 -6.209519,-4.341574 -6.209519,-9.697178 0,-5.355604 2.780085,-39.495751 6.209519,-39.495751 3.42943,0 6.20953,34.140146 6.20953,39.495751 z"
       sodipodi:nodetypes="sssss" />
    <path
       id="path34"
       style="stroke:#000000;stroke-width:1.36702;stroke-linecap:round;stroke-linejoin:round"
       d="m 116.34078,210.05653 c -3.78698,-3.78701 -4.89112,-8.82281 -2.46616,-11.24778 2.42496,-2.42498 7.46073,-1.32084 11.24772,2.46617 3.78698,3.78701 25.96189,29.8937 23.53693,32.31868 -2.42496,2.42497 -28.53151,-19.75007 -32.31849,-23.53707 z"
       sodipodi:nodetypes="sssss" />
    <path
       id="path35"
       style="stroke:#000000;stroke-width:1.36702;stroke-linecap:round;stroke-linejoin:round"
       d="m 79.732151,201.2749 c 3.78698,-3.78701 8.82277,-4.89115 11.24774,-2.46616 2.42498,2.42499 1.32085,7.46081 -2.46613,11.24781 -3.78699,3.78701 -29.89355,25.96204 -32.31853,23.53704 -2.42497,-2.42498 19.74993,-28.53169 23.53692,-32.31869 z"
       sodipodi:nodetypes="sssss" />
    <path
       id="path36"
       style="stroke:#000000;stroke-width:1.36702;stroke-linecap:round;stroke-linejoin:round"
       d="m 95.953211,220.35192 c 0,-5.35564 2.7801,-9.69723 6.209529,-9.69723 3.42943,0 6.20952,4.34159 6.20952,9.69723 0,5.35564 -2.78009,39.49597 -6.20952,39.49597 -3.429429,0 -6.209529,-34.14033 -6.209529,-39.49597 z"
       sodipodi:nodetypes="sssss" />
    <path
       id="path37"
       style="stroke:#000000;stroke-width:1.36702;stroke-linecap:round;stroke-linejoin:round"
       d="m 116.34078,210.05653 c -3.78698,-3.78701 -4.89112,-8.82281 -2.46616,-11.24778 2.42496,-2.42498 7.46073,-1.32084 11.24772,2.46617 3.78698,3.78701 25.96189,29.8937 23.53693,32.31868 -2.42496,2.42497 -28.53151,-19.75007 -32.31849,-23.53707 z"
       sodipodi:nodetypes="sssss" />
    <path
       id="path38"
       style="stroke:#000000;stroke-width:1.36702;stroke-linecap:round;stroke-linejoin:round"
       d="m 79.732151,201.2749 c 3.78698,-3.78701 8.82277,-4.89115 11.24774,-2.46616 2.42498,2.42499 1.32085,7.46081 -2.46613,11.24781 -3.78699,3.78701 -29.89355,25.96204 -32.31853,23.53704 -2.42497,-2.42498 19.74993,-28.53169 23.53692,-32.31869 z"
       sodipodi:nodetypes="sssss" />
    <path
       id="path39"
       style="stroke:#000000;stroke-width:1.36702;stroke-linecap:round;stroke-linejoin:round"
       d="m 95.953211,220.35192 c 0,-5.35564 2.7801,-9.69723 6.209529,-9.69723 3.42943,0 6.20952,4.34159 6.20952,9.69723 0,5.35564 -2.78009,39.49597 -6.20952,39.49597 -3.429429,0 -6.209529,-34.14033 -6.209529,-39.49597 z"
       sodipodi:nodetypes="sssss" />
  </g>
</svg>
